<svg width="44" height="42" viewBox="0 0 44 42" fill="none" xmlns="http://www.w3.org/2000/svg">
<mask id="path-2-inside-1" fill="white">
<path d="M43.3714 36.9964H36.1002L38.6745 36.2281C39.1013 36.1012 39.4506 35.8233 39.658 35.4456C39.8654 35.068 39.9062 34.6358 39.7729 34.2286L30.1793 4.92362C29.9604 4.25316 29.32 3.80273 28.5853 3.80273C28.416 3.80273 28.2478 3.82742 28.086 3.87585L22.1885 5.63471C22.1319 5.65151 22.0771 5.67122 22.0239 5.69316V5.46139C22.0239 4.58171 21.2744 3.86599 20.3533 3.86599H14.1359C13.7415 3.86599 13.3792 3.99791 13.0932 4.21691C12.8067 3.99791 12.4437 3.86599 12.0486 3.86599H5.82371C4.9016 3.86599 4.15127 4.58171 4.15127 5.46139V36.9964H0.628571C0.28142 36.9964 0 37.265 0 37.5964C0 37.9277 0.28142 38.1964 0.628571 38.1964H43.3714C43.7186 38.1964 44 37.9277 44 37.5964C44 37.265 43.7186 36.9964 43.3714 36.9964ZM38.5446 34.8885C38.4933 34.9821 38.4066 35.051 38.2999 35.0826L32.403 36.8424C32.3628 36.8545 32.3215 36.8605 32.2802 36.8605C32.1003 36.8605 31.9372 36.7459 31.8835 36.5818L24.8112 14.9764L31.5002 12.982L38.5729 34.5866C38.6061 34.6877 38.596 34.795 38.5446 34.8885ZM31.1253 11.8367L24.4363 13.831L23.6714 11.4945L30.3603 9.49982L31.1253 11.8367ZM22.5631 6.78028L28.4615 5.02116C28.5021 5.00899 28.5438 5.00282 28.5853 5.00282C28.7667 5.00282 28.9248 5.11442 28.9792 5.28113L29.9854 8.35451L23.2965 10.3492L22.2912 7.27802C22.2231 7.06845 22.345 6.84525 22.5631 6.78028ZM30.7047 36.9964H22.0238V10.4849L30.7047 36.9964ZM13.7223 17.7943H20.7667V19.465H13.7223V17.7943ZM20.7667 16.5943H13.7224V10.7219H20.7667V16.5943ZM12.4652 12.3152H5.40841V10.7219H12.4652V12.3152ZM5.40841 13.5152H12.4652V15.1094H5.40841V13.5152ZM13.7223 20.665H20.7667V36.9964H13.7223V20.665ZM14.1359 5.06599H20.3533C20.5812 5.06599 20.7667 5.24333 20.7667 5.46139V9.52185H13.7224V5.46148C13.7223 5.24342 13.9079 5.06599 14.1359 5.06599ZM5.82371 5.06599H12.0485C12.2783 5.06599 12.4652 5.24333 12.4652 5.46139V9.52185H5.40841V5.46148C5.40841 5.24342 5.59482 5.06599 5.82371 5.06599ZM5.40841 16.3094H12.4652V36.9964H5.40841V16.3094Z"/>
</mask>
<path d="M43.3714 36.9964H36.1002L38.6745 36.2281C39.1013 36.1012 39.4506 35.8233 39.658 35.4456C39.8654 35.068 39.9062 34.6358 39.7729 34.2286L30.1793 4.92362C29.9604 4.25316 29.32 3.80273 28.5853 3.80273C28.416 3.80273 28.2478 3.82742 28.086 3.87585L22.1885 5.63471C22.1319 5.65151 22.0771 5.67122 22.0239 5.69316V5.46139C22.0239 4.58171 21.2744 3.86599 20.3533 3.86599H14.1359C13.7415 3.86599 13.3792 3.99791 13.0932 4.21691C12.8067 3.99791 12.4437 3.86599 12.0486 3.86599H5.82371C4.9016 3.86599 4.15127 4.58171 4.15127 5.46139V36.9964H0.628571C0.28142 36.9964 0 37.265 0 37.5964C0 37.9277 0.28142 38.1964 0.628571 38.1964H43.3714C43.7186 38.1964 44 37.9277 44 37.5964C44 37.265 43.7186 36.9964 43.3714 36.9964ZM38.5446 34.8885C38.4933 34.9821 38.4066 35.051 38.2999 35.0826L32.403 36.8424C32.3628 36.8545 32.3215 36.8605 32.2802 36.8605C32.1003 36.8605 31.9372 36.7459 31.8835 36.5818L24.8112 14.9764L31.5002 12.982L38.5729 34.5866C38.6061 34.6877 38.596 34.795 38.5446 34.8885ZM31.1253 11.8367L24.4363 13.831L23.6714 11.4945L30.3603 9.49982L31.1253 11.8367ZM22.5631 6.78028L28.4615 5.02116C28.5021 5.00899 28.5438 5.00282 28.5853 5.00282C28.7667 5.00282 28.9248 5.11442 28.9792 5.28113L29.9854 8.35451L23.2965 10.3492L22.2912 7.27802C22.2231 7.06845 22.345 6.84525 22.5631 6.78028ZM30.7047 36.9964H22.0238V10.4849L30.7047 36.9964ZM13.7223 17.7943H20.7667V19.465H13.7223V17.7943ZM20.7667 16.5943H13.7224V10.7219H20.7667V16.5943ZM12.4652 12.3152H5.40841V10.7219H12.4652V12.3152ZM5.40841 13.5152H12.4652V15.1094H5.40841V13.5152ZM13.7223 20.665H20.7667V36.9964H13.7223V20.665ZM14.1359 5.06599H20.3533C20.5812 5.06599 20.7667 5.24333 20.7667 5.46139V9.52185H13.7224V5.46148C13.7223 5.24342 13.9079 5.06599 14.1359 5.06599ZM5.82371 5.06599H12.0485C12.2783 5.06599 12.4652 5.24333 12.4652 5.46139V9.52185H5.40841V5.46148C5.40841 5.24342 5.59482 5.06599 5.82371 5.06599ZM5.40841 16.3094H12.4652V36.9964H5.40841V16.3094Z" fill="#368CBF"/>
<path d="M36.1002 36.9964L33.2405 27.414L36.1002 46.9964V36.9964ZM38.6745 36.2281L35.8254 26.6426L35.8147 26.6457L38.6745 36.2281ZM39.658 35.4456L30.8935 30.6306L30.8931 30.6315L39.658 35.4456ZM39.7729 34.2286L30.2692 37.3399L30.2696 37.3411L39.7729 34.2286ZM30.1793 4.92362L20.6733 8.02761L20.6756 8.03483L30.1793 4.92362ZM28.086 3.87585L30.944 13.4588L30.9532 13.456L28.086 3.87585ZM22.1885 5.63471L25.0353 15.2209L25.0465 15.2176L22.1885 5.63471ZM22.0239 5.69316H12.0239V20.6297L25.8339 14.9389L22.0239 5.69316ZM13.0932 4.21691L7.02079 12.1621L13.099 16.8076L19.1729 12.1565L13.0932 4.21691ZM4.15127 36.9964V46.9964H14.1513V36.9964H4.15127ZM38.5446 34.8885L29.7797 30.0743L29.7779 30.0777L38.5446 34.8885ZM38.2999 35.0826L35.4574 25.4951L35.4488 25.4977L35.4403 25.5002L38.2999 35.0826ZM32.403 36.8424L29.5434 27.26L29.5346 27.2626L29.5258 27.2653L32.403 36.8424ZM31.8835 36.5818L41.3873 33.4711L41.3873 33.4709L31.8835 36.5818ZM24.8112 14.9764L21.954 5.39322L12.1126 8.32739L15.3074 18.0873L24.8112 14.9764ZM31.5002 12.982L41.0039 9.87082L37.9744 0.616807L28.6431 3.39891L31.5002 12.982ZM38.5729 34.5866L29.0692 37.6978L29.0724 37.7074L38.5729 34.5866ZM31.1253 11.8367L33.9825 21.4199L43.8243 18.4856L40.629 8.72542L31.1253 11.8367ZM24.4363 13.831L14.9325 16.9421L17.9619 26.1963L27.2934 23.4142L24.4363 13.831ZM23.6714 11.4945L20.8137 1.91149L10.9728 4.84607L14.1676 14.6055L23.6714 11.4945ZM30.3603 9.49982L39.8639 6.3885L36.8342 -2.8659L27.5026 -0.0831664L30.3603 9.49982ZM22.5631 6.78028L25.4179 16.3641L25.4211 16.3632L22.5631 6.78028ZM28.4615 5.02116L31.3195 14.6041L31.3267 14.6019L31.334 14.5997L28.4615 5.02116ZM28.9792 5.28113L19.4728 8.38407L19.4755 8.39246L28.9792 5.28113ZM29.9854 8.35451L32.8431 17.9375L42.6842 15.0028L39.489 5.24318L29.9854 8.35451ZM23.2965 10.3492L13.7927 13.46L16.8221 22.715L26.1542 19.9321L23.2965 10.3492ZM22.2912 7.27802L12.7815 10.3707L12.7844 10.3798L12.7874 10.3889L22.2912 7.27802ZM30.7047 36.9964V46.9964H44.5016L40.2082 33.8845L30.7047 36.9964ZM22.0238 36.9964H12.0238V46.9964H22.0238V36.9964ZM22.0238 10.4849L31.5273 7.3731L12.0238 10.4849H22.0238ZM13.7223 17.7943V7.79431H3.72234V17.7943H13.7223ZM20.7667 17.7943H30.7667V7.79431H20.7667V17.7943ZM20.7667 19.465V29.465H30.7667V19.465H20.7667ZM13.7223 19.465H3.72234V29.465H13.7223V19.465ZM13.7224 16.5943H3.72243V26.5943H13.7224V16.5943ZM13.7224 10.7219V0.721934H3.72243V10.7219H13.7224ZM20.7667 10.7219H30.7667V0.721934H20.7667V10.7219ZM12.4652 12.3152V22.3152H22.4652V12.3152H12.4652ZM5.40841 12.3152H-4.59159V22.3152H5.40841V12.3152ZM5.40841 10.7219V0.721934H-4.59159V10.7219H5.40841ZM12.4652 10.7219H22.4652V0.721934H12.4652V10.7219ZM5.40841 13.5152V3.51519H-4.59159V13.5152H5.40841ZM12.4652 13.5152H22.4652V3.51519H12.4652V13.5152ZM12.4652 15.1094V25.1094H22.4652V15.1094H12.4652ZM5.40841 15.1094H-4.59159V25.1094H5.40841V15.1094ZM13.7223 20.665V10.665H3.72234V20.665H13.7223ZM20.7667 20.665H30.7667V10.665H20.7667V20.665ZM20.7667 36.9964V46.9964H30.7667V36.9964H20.7667ZM13.7223 36.9964H3.72234V46.9964H13.7223V36.9964ZM20.7667 9.52185V19.5218H30.7667V9.52185H20.7667ZM13.7224 9.52185H3.72243V19.5218H13.7224V9.52185ZM13.7224 5.46148H23.7224L23.7224 5.45736L13.7224 5.46148ZM12.4652 9.52185V19.5218H22.4652V9.52185H12.4652ZM5.40841 9.52185H-4.59159V19.5218H5.40841V9.52185ZM5.40841 16.3094V6.30939H-4.59159V16.3094H5.40841ZM12.4652 16.3094H22.4652V6.30939H12.4652V16.3094ZM12.4652 36.9964V46.9964H22.4652V36.9964H12.4652ZM5.40841 36.9964H-4.59159V46.9964H5.40841V36.9964ZM43.3714 26.9964H36.1002V46.9964H43.3714V26.9964ZM38.9599 46.5787L41.5342 45.8105L35.8147 26.6457L33.2405 27.414L38.9599 46.5787ZM41.5236 45.8136C44.3808 44.9644 46.9026 43.0278 48.4229 40.2598L30.8931 30.6315C31.9985 28.6188 33.8217 27.2381 35.8254 26.6426L41.5236 45.8136ZM48.4225 40.2606C49.9548 37.4714 50.2763 34.17 49.2761 31.1161L30.2696 37.3411C29.5361 35.1016 29.7761 32.6647 30.8935 30.6306L48.4225 40.2606ZM49.2766 31.1174L39.683 1.81241L20.6756 8.03483L30.2692 37.3399L49.2766 31.1174ZM39.6854 1.81963C38.0489 -3.19207 33.4021 -6.19727 28.5853 -6.19727V13.8027C25.2379 13.8027 21.8719 11.6984 20.6733 8.02761L39.6854 1.81963ZM28.5853 -6.19727C27.4437 -6.19727 26.3097 -6.03079 25.2188 -5.70429L30.9532 13.456C30.1859 13.6856 29.3883 13.8027 28.5853 13.8027V-6.19727ZM25.228 -5.70705L19.3305 -3.9482L25.0465 15.2176L30.944 13.4588L25.228 -5.70705ZM19.3417 -3.95152C18.9267 -3.82828 18.55 -3.69109 18.2139 -3.55259L25.8339 14.9389C25.6043 15.0335 25.3371 15.1313 25.0353 15.2209L19.3417 -3.95152ZM32.0239 5.69316V5.46139H12.0239V5.69316H32.0239ZM32.0239 5.46139C32.0239 -1.37001 26.3584 -6.13401 20.3533 -6.13401V13.866C16.1905 13.866 12.0239 10.5334 12.0239 5.46139H32.0239ZM20.3533 -6.13401H14.1359V13.866H20.3533V-6.13401ZM14.1359 -6.13401C11.4835 -6.13401 8.99638 -5.24103 7.01358 -3.72273L19.1729 12.1565C17.7621 13.2368 15.9994 13.866 14.1359 13.866V-6.13401ZM19.1657 -3.72825C17.1821 -5.24429 14.6967 -6.13401 12.0486 -6.13401V13.866C10.1908 13.866 8.4313 13.2401 7.02079 12.1621L19.1657 -3.72825ZM12.0486 -6.13401H5.82371V13.866H12.0486V-6.13401ZM5.82371 -6.13401C-0.171319 -6.13401 -5.84873 -1.38058 -5.84873 5.46139H14.1513C14.1513 10.544 9.97452 13.866 5.82371 13.866V-6.13401ZM-5.84873 5.46139V36.9964H14.1513V5.46139H-5.84873ZM4.15127 26.9964H0.628571V46.9964H4.15127V26.9964ZM0.628571 26.9964C-4.79793 26.9964 -10 31.3088 -10 37.5964H10C10 43.2211 5.36077 46.9964 0.628571 46.9964V26.9964ZM-10 37.5964C-10 43.8839 -4.79793 48.1964 0.628571 48.1964V28.1964C5.36077 28.1964 10 31.9716 10 37.5964H-10ZM0.628571 48.1964H43.3714V28.1964H0.628571V48.1964ZM43.3714 48.1964C48.7979 48.1964 54 43.8839 54 37.5964H34C34 31.9716 38.6392 28.1964 43.3714 28.1964V48.1964ZM54 37.5964C54 31.3088 48.7979 26.9964 43.3714 26.9964V46.9964C38.6392 46.9964 34 43.2211 34 37.5964H54ZM29.7779 30.0777C31.0465 27.7659 33.1424 26.1815 35.4574 25.4951L41.1425 44.6701C43.6709 43.9205 45.9401 42.1983 47.3114 39.6993L29.7779 30.0777ZM35.4403 25.5002L29.5434 27.26L35.2627 46.4248L41.1596 44.665L35.4403 25.5002ZM29.5258 27.2653C30.4219 26.9961 31.35 26.8605 32.2802 26.8605V46.8605C33.293 46.8605 34.3037 46.7129 35.2803 46.4196L29.5258 27.2653ZM32.2802 26.8605C36.1767 26.8605 40.0203 29.2946 41.3873 33.4711L22.3796 39.6926C23.854 44.1972 28.024 46.8605 32.2802 46.8605V26.8605ZM41.3873 33.4709L34.3149 11.8654L15.3074 18.0873L22.3797 39.6928L41.3873 33.4709ZM27.6683 24.5595L34.3574 22.5652L28.6431 3.39891L21.954 5.39322L27.6683 24.5595ZM21.9965 16.0933L29.0692 37.6978L48.0766 31.4754L41.0039 9.87082L21.9965 16.0933ZM29.0724 37.7074C28.2352 35.159 28.5056 32.394 29.7797 30.0743L47.3095 39.7027C48.6864 37.1959 48.977 34.2165 48.0735 31.4657L29.0724 37.7074ZM28.2682 2.25359L21.5791 4.24791L27.2934 23.4142L33.9825 21.4199L28.2682 2.25359ZM33.94 10.72L33.1751 8.3834L14.1676 14.6055L14.9325 16.9421L33.94 10.72ZM26.5291 21.0775L33.218 19.0828L27.5026 -0.0831664L20.8137 1.91149L26.5291 21.0775ZM20.8566 12.6111L21.6217 14.9481L40.629 8.72542L39.8639 6.3885L20.8566 12.6111ZM25.4211 16.3632L31.3195 14.6041L25.6036 -4.56174L19.7052 -2.80263L25.4211 16.3632ZM31.334 14.5997C30.4617 14.8613 29.5363 15.0028 28.5853 15.0028V-4.99718C27.5512 -4.99718 26.5426 -4.84334 25.5891 -4.55742L31.334 14.5997ZM28.5853 15.0028C24.6506 15.0028 20.8255 12.5285 19.4728 8.38407L38.4856 2.1782C37.024 -2.29961 32.8827 -4.99718 28.5853 -4.99718V15.0028ZM19.4755 8.39246L20.4817 11.4658L39.489 5.24318L38.4829 2.16981L19.4755 8.39246ZM27.1277 -1.22848L20.4388 0.766176L26.1542 19.9321L32.8431 17.9375L27.1277 -1.22848ZM32.8003 7.23832L31.795 4.16717L12.7874 10.3889L13.7927 13.46L32.8003 7.23832ZM31.801 4.18534C33.568 9.61889 30.2808 14.9156 25.4179 16.3641L19.7083 -2.80357C14.4092 -1.22507 10.8781 4.51801 12.7815 10.3707L31.801 4.18534ZM30.7047 26.9964H22.0238V46.9964H30.7047V26.9964ZM32.0238 36.9964V10.4849H12.0238V36.9964H32.0238ZM12.5203 13.5968L21.2012 40.1082L40.2082 33.8845L31.5273 7.3731L12.5203 13.5968ZM13.7223 27.7943H20.7667V7.79431H13.7223V27.7943ZM10.7667 17.7943V19.465H30.7667V17.7943H10.7667ZM20.7667 9.46505H13.7223V29.465H20.7667V9.46505ZM23.7223 19.465V17.7943H3.72234V19.465H23.7223ZM20.7667 6.59431H13.7224V26.5943H20.7667V6.59431ZM23.7224 16.5943V10.7219H3.72243V16.5943H23.7224ZM13.7224 20.7219H20.7667V0.721934H13.7224V20.7219ZM10.7667 10.7219V16.5943H30.7667V10.7219H10.7667ZM12.4652 2.31519H5.40841V22.3152H12.4652V2.31519ZM15.4084 12.3152V10.7219H-4.59159V12.3152H15.4084ZM5.40841 20.7219H12.4652V0.721934H5.40841V20.7219ZM2.4652 10.7219V12.3152H22.4652V10.7219H2.4652ZM5.40841 23.5152H12.4652V3.51519H5.40841V23.5152ZM2.4652 13.5152V15.1094H22.4652V13.5152H2.4652ZM12.4652 5.10939H5.40841V25.1094H12.4652V5.10939ZM15.4084 15.1094V13.5152H-4.59159V15.1094H15.4084ZM13.7223 30.665H20.7667V10.665H13.7223V30.665ZM10.7667 20.665V36.9964H30.7667V20.665H10.7667ZM20.7667 26.9964H13.7223V46.9964H20.7667V26.9964ZM23.7223 36.9964V20.665H3.72234V36.9964H23.7223ZM14.1359 15.066H20.3533V-4.93401H14.1359V15.066ZM20.3533 15.066C15.4846 15.066 10.7667 11.183 10.7667 5.46139H30.7667C30.7667 -0.696289 25.6779 -4.93401 20.3533 -4.93401V15.066ZM10.7667 5.46139V9.52185H30.7667V5.46139H10.7667ZM20.7667 -0.478151H13.7224V19.5218H20.7667V-0.478151ZM23.7224 9.52185V5.46148H3.72243V9.52185H23.7224ZM23.7224 5.45736C23.7248 11.1817 19.0049 15.066 14.1359 15.066V-4.93401C8.81078 -4.93401 3.7199 -0.694822 3.72243 5.4656L23.7224 5.45736ZM5.82371 15.066H12.0485V-4.93401H5.82371V15.066ZM12.0485 15.066C7.25512 15.066 2.4652 11.2529 2.4652 5.46139H22.4652C22.4652 -0.766245 17.3015 -4.93401 12.0485 -4.93401V15.066ZM2.4652 5.46139V9.52185H22.4652V5.46139H2.4652ZM12.4652 -0.478151H5.40841V19.5218H12.4652V-0.478151ZM15.4084 9.52185V5.46148H-4.59159V9.52185H15.4084ZM15.4084 5.46148C15.4084 11.2229 10.6497 15.066 5.82371 15.066V-4.93401C0.539973 -4.93401 -4.59159 -0.736086 -4.59159 5.46148H15.4084ZM5.40841 26.3094H12.4652V6.30939H5.40841V26.3094ZM2.4652 16.3094V36.9964H22.4652V16.3094H2.4652ZM12.4652 26.9964H5.40841V46.9964H12.4652V26.9964ZM15.4084 36.9964V16.3094H-4.59159V36.9964H15.4084Z" fill="#368CBF" mask="url(#path-2-inside-1)"/>
</svg>
