<svg width="39" height="46" viewBox="0 0 39 46" fill="none" xmlns="http://www.w3.org/2000/svg"><path d="M4.312 39.784c0 .26.22.47.49.47h28.93a.48.48 0 00.49-.47.48.48 0 00-.49-.47H4.801a.48.48 0 00-.49.47zm29.419 1.268H4.803a.48.48 0 00-.491.47c0 .259.22.47.49.47h28.93a.48.48 0 00.49-.47.48.48 0 00-.49-.47z" fill="#368CBF"/><path d="M38.509 0H4.436C1.99 0 0 1.903 0 4.241v36.33C0 44.577 2.89 46 5.365 46H38.51a.48.48 0 00.491-.47V.47A.48.48 0 0038.51 0zM5.365 45.06c-.732 0-4.383-.216-4.383-4.49V4.241C.982 2.421 2.532.94 4.436.94h.438v29.38c0 .259.22.47.491.47a.48.48 0 00.491-.47V.938h32.162V35.37H5.856v-1.445a.48.48 0 00-.49-.47.48.48 0 00-.492.47v1.445H4.71c-.75 0-1.601.298-2.398.838a.457.457 0 00-.117.654.504.504 0 00.685.112c.632-.429 1.282-.664 1.83-.664h33.309v.976H5.538c-1.893 0-3.434 1.473-3.434 3.284 0 1.81 1.54 3.284 3.434 3.284h30.437a.48.48 0 00.492-.47v-5.159h1.55v6.836H5.366zm28.506-6.835h1.613v4.69H5.538c-1.352 0-2.452-1.052-2.452-2.345 0-1.293 1.1-2.345 2.452-2.345h28.333z" fill="#368CBF"/><path d="M16.137 11.71h.685c.04 0 .145.105.16.299l.02.228c.195 2.44.382 4.753 3.142 5.018v3.55h-.706a.48.48 0 00-.491.47c0 .26.22.47.491.47h2.408a.48.48 0 00.492-.47.48.48 0 00-.492-.47h-.72v-3.541c2.873-.209 3.061-2.529 3.257-4.98l.022-.275c.015-.194.121-.298.16-.298h.687a.48.48 0 00.492-.47.48.48 0 00-.492-.47h-.686c-.596 0-1.087.501-1.14 1.165l-.023.276c-.207 2.6-.403 3.941-2.277 4.11v-4.611h.72a.48.48 0 00.492-.47.48.48 0 00-.492-.47h-1.141a.536.536 0 00-.07-.006c-.024 0-.046.003-.07.006h-1.127a.48.48 0 00-.491.47c0 .26.22.47.491.47h.706v4.598c-1.763-.217-1.957-1.57-2.163-4.144l-.019-.23c-.054-.663-.544-1.164-1.14-1.164h-.685a.48.48 0 00-.492.47c0 .26.22.47.492.47z" fill="#368CBF"/><path d="M13.015 30.512c0 .26.22.47.49.47h9.499c.143 0 .28-.06.373-.164a.456.456 0 00.113-.377l-.808-5.034h6.095c1.084 0 1.965-.843 1.965-1.878V19.77h2.214a.496.496 0 00.422-.23.452.452 0 00.01-.463l-2.484-4.374c-.437-5.116-4.932-9.072-10.307-9.072h-.118c-5.62.06-10.206 4.484-10.222 9.86-.007 2.52.971 4.908 2.758 6.749v8.271zm7.475-23.94h.107c4.898 0 8.988 3.628 9.335 8.305.006.08.033.155.076.218l2.122 3.737h-1.88a.48.48 0 00-.49.47v4.227c0 .517-.441.939-.983.939h-8.179a9.65 9.65 0 01-3.814-.775.5.5 0 00-.65.237.462.462 0 00.249.62c1.33.57 2.748.857 4.215.857h1.09l.744 4.635h-8.435v-7.988c0-.018-.003-.035-.005-.052l-.004-.033a.45.45 0 00-.017-.06c-.003-.01-.005-.019-.01-.028a.456.456 0 00-.03-.059l-.013-.022a.487.487 0 00-.051-.063l-.008-.009-.004-.004-.003-.003c-1.691-1.681-2.619-3.892-2.612-6.226.014-4.866 4.163-8.869 9.25-8.923z" fill="#368CBF"/></svg>