<svg width="45" height="46" viewBox="0 0 45 46" fill="none" xmlns="http://www.w3.org/2000/svg"><path d="M22.5 27.69c2.868 0 5.193-2.093 5.193-4.674 0-2.582-2.325-4.674-5.193-4.674-2.867 0-5.192 2.092-5.192 4.674 0 2.581 2.325 4.674 5.192 4.674z" fill="#368CBF"/><path d="M41.548 25.347a32.145 32.145 0 00-2.206-2.331 32.123 32.123 0 002.206-2.332c1.548-1.82 2.59-3.536 3.1-5.1.409-1.259.667-3.092-.425-4.68-1.477-2.145-4.49-2.595-6.757-2.595-1.907 0-4.084.3-6.426.867a27.611 27.611 0 00-.747-1.976c-.908-2.14-1.983-3.845-3.193-5.056C25.702.747 24.097 0 22.457 0h-.01c-2.075 0-3.667 1.177-4.638 2.155-1.207 1.215-2.275 2.927-3.174 5.072-.259.617-.5 1.265-.724 1.938-2.323-.56-4.484-.856-6.377-.856-2.268 0-5.28.45-6.757 2.597-1.092 1.586-.834 3.42-.425 4.678.51 1.565 1.552 3.282 3.1 5.102a32.175 32.175 0 002.205 2.33 32.111 32.111 0 00-2.205 2.331c-1.548 1.82-2.59 3.537-3.1 5.101-.409 1.258-.667 3.091.425 4.678 1.476 2.146 4.49 2.596 6.757 2.596 1.907 0 4.086-.3 6.428-.868.23.684.479 1.342.745 1.969.908 2.141 1.983 3.837 3.194 5.049C19.298 45.269 20.903 46 22.543 46h.01c2.075 0 3.667-1.163 4.638-2.14 1.207-1.215 2.275-2.912 3.174-5.057.258-.615.498-1.26.721-1.93 2.324.561 4.486.858 6.38.858 2.268 0 5.28-.455 6.757-2.6 1.092-1.587.834-3.424.425-4.683-.509-1.564-1.552-3.28-3.1-5.1zm-4.082-14.424c1.252 0 3.475.176 4.288 1.358.92 1.336-.02 3.884-2.512 6.815a29.469 29.469 0 01-1.957 2.074 53.488 53.488 0 00-4.45-3.347 43.39 43.39 0 00-1.056-6.117c2.124-.515 4.056-.783 5.687-.783zm-8.429 22.636l-.073-.023a50.345 50.345 0 01-3.23-1.157 67.337 67.337 0 003.954-2.174 38.666 38.666 0 01-.651 3.354zm-2.483-4.652a63.448 63.448 0 01-4.056 2.074 63.898 63.898 0 01-7.547-4.172 50.324 50.324 0 01-.016-7.576 63.425 63.425 0 017.564-4.181 63.513 63.513 0 017.55 4.172 50.348 50.348 0 01.016 7.575 63.098 63.098 0 01-3.511 2.108zm-10.552 4.635a38.73 38.73 0 01-.657-3.313 67.193 67.193 0 003.913 2.15 50.74 50.74 0 01-3.222 1.153l-.034.01zm-4.074-8.825a47.46 47.46 0 01-2.157-1.701 47.31 47.31 0 012.15-1.696 53.244 53.244 0 00.007 3.397zm4.032-12.24c.026.008.051.015.076.024 1.056.337 2.136.723 3.226 1.155a67.248 67.248 0 00-3.951 2.171c.174-1.16.391-2.281.65-3.35zm13.04.012c.26 1.06.48 2.17.657 3.32a67.5 67.5 0 00-3.92-2.154 50.83 50.83 0 013.227-1.155l.036-.011zm4.072 8.827a47.412 47.412 0 012.156 1.7c-.68.57-1.397 1.136-2.15 1.696a53.495 53.495 0 00-.006-3.396zM17.352 8.15c1.448-3.453 3.354-5.517 5.105-5.52 1.745 0 3.66 2.056 5.123 5.505.245.577.474 1.183.686 1.813a55.95 55.95 0 00-5.766 2.176 55.855 55.855 0 00-5.814-2.19c.206-.62.428-1.216.666-1.784zM3.245 12.281c.814-1.182 3.037-1.358 4.29-1.358 1.62 0 3.537.265 5.645.774a43.249 43.249 0 00-1.037 6.14 53.47 53.47 0 00-4.428 3.333 29.434 29.434 0 01-1.957-2.074c-2.493-2.931-3.432-5.479-2.513-6.815zM7.534 35.11c-1.252 0-3.475-.176-4.289-1.358-.919-1.337.02-3.884 2.513-6.815.585-.687 1.24-1.38 1.955-2.073a53.497 53.497 0 004.453 3.35 43.3 43.3 0 001.056 6.112c-2.124.516-4.057.784-5.688.784zm20.114 2.765c-1.448 3.453-3.354 5.512-5.1 5.512h-.004c-1.746 0-3.662-2.051-5.125-5.5a25.487 25.487 0 01-.682-1.803 55.927 55.927 0 005.757-2.172c1.98.87 3.934 1.606 5.816 2.193a25.314 25.314 0 01-.662 1.77zm14.107-4.12c-.814 1.183-3.036 1.364-4.289 1.364-1.62 0-3.54-.267-5.647-.778a43.266 43.266 0 001.037-6.146 53.473 53.473 0 004.428-3.331 29.456 29.456 0 011.958 2.075c2.493 2.931 3.432 5.48 2.513 6.817z" fill="#368CBF"/></svg>