<svg width="17" height="16" fill="none" xmlns="http://www.w3.org/2000/svg"><path d="M16.842 5.256l-1.27-1.181-1.27-1.182a.56.56 0 00-.381-.147.56.56 0 00-.38.147l-.628.584V.5c0-.276-.241-.5-.538-.5H.538C.241 0 0 .224 0 .5v15c0 .276.24.5.538.5h11.837c.297 0 .538-.224.538-.5V9.62l3.93-3.656a.476.476 0 000-.708zM11.837 15H1.076V1.001h10.76v3.477L7.392 8.613a.492.492 0 00-.146.252l-.661 2.979a.478.478 0 00.146.455.56.56 0 00.49.136l3.201-.615a.55.55 0 00.272-.136l1.144-1.064V15zm-3.74-5.022l1.13 1.05-1.424.274.294-1.324zm2.216.645l-1.78-1.655 5.388-5.013.51.474-3.287 3.057a.476.476 0 000 .708.558.558 0 00.38.147.558.558 0 00.381-.147l3.287-3.057.51.474-5.39 5.012z" fill="#368CBF"/></svg>