<svg width="17" height="16" fill="none" xmlns="http://www.w3.org/2000/svg"><path d="M16.8424 5.25626l-1.27-1.18138c-.0002-.00016-.0002-.00032-.0004-.00044-.0002-.00012-.0004-.00024-.0005-.00036l-1.27-1.18141c-.1009-.09384-.2377-.14656-.3805-.14656-.1427 0-.2795.05272-.3804.14656l-.6279.58408V.500413C12.9127.224065 12.6718 0 12.3747 0H.537974C.240883 0 0 .224065 0 .500413V15.4996C0 15.7759.240883 16 .537974 16H12.3748c.297 0 .538-.2241.538-.5004V9.6191l3.9296-3.65518c.2101-.1954.2101-.51222 0-.70766zm-5.0056 9.74294H1.07595V1.00083H11.8368v3.47674l-4.44555 4.1351c-.07429.06917-.12516.15701-.14642.25268l-.66102 2.97845c-.03662.165.01846.336.14646.455.10191.0948.2392.1466.38041.1466.0362 0 .07265-.0034.10876-.0103l3.20186-.615c.103-.0198.1974-.0672.2716-.1363l1.1439-1.0639v4.3793zM8.09685 9.97663l1.12983 1.05097-1.42378.2735.29395-1.32447zm2.21575.64567L8.53253 8.96656l5.38857-5.01234.5096.47411-3.2863 3.05701c-.2102.19544-.2102.51226 0 .7077.1049.09764.2427.14656.3804.14656.1377 0 .2753-.04892.3804-.14656l3.2864-3.05696.5097.47407-5.3887 5.01215z" fill="#368CBF"/></svg>