<svg xmlns="http://www.w3.org/2000/svg" viewBox="0 0 490 490"><path fill="#368CBF" d="M483 431.629h-80.975l28.668-8.963c4.753-1.48 8.643-4.723 10.953-9.129 2.31-4.405 2.764-9.448 1.279-14.198L336.088 57.447c-2.438-7.822-9.57-13.077-17.752-13.077-1.885 0-3.758.288-5.56.853l-65.677 20.52c-.63.196-1.24.426-1.833.682v-2.704c0-10.263-8.346-18.613-18.604-18.613h-69.24c-4.392 0-8.426 1.539-11.611 4.094-3.191-2.555-7.233-4.094-11.633-4.094H64.855c-10.269 0-18.625 8.35-18.625 18.613v367.908H7c-3.866 0-7 3.134-7 7s3.134 7 7 7h476c3.866 0 7-3.134 7-7s-3.134-7-7-7zm-53.753-24.592c-.572 1.092-1.537 1.896-2.725 2.265l-65.67 20.531c-.448.141-.908.211-1.368.211-2.003 0-3.82-1.337-4.418-3.251l-78.76-252.064 74.492-23.267 78.764 252.053c.37 1.18.257 2.431-.315 3.522zM346.623 138.1l-74.492 23.267-8.518-27.26 74.49-23.271 8.52 27.264zm-95.352-58.992l65.687-20.523c.452-.142.916-.214 1.378-.214 2.02 0 3.781 1.302 4.387 3.247l11.205 35.856-74.49 23.271-11.195-35.83c-.759-2.445.599-5.049 3.028-5.807zm90.668 352.521h-96.674v-309.3l96.674 309.3zM152.817 207.605h78.448v19.492h-78.448v-19.492zm78.449-14h-78.448v-68.511h78.448v68.511zm-92.449-49.923H60.23v-18.588h78.587v18.588zm-78.587 14h78.587v18.599H60.23v-18.599zm92.587 83.415h78.448V431.63h-78.448V241.097zm4.605-181.989h69.24c2.538 0 4.604 2.069 4.604 4.613v47.372h-78.448V63.722c-.001-2.544 2.065-4.614 4.604-4.614zm-92.567 0h69.322c2.559 0 4.64 2.069 4.64 4.613v47.372H60.23V63.722c0-2.544 2.076-4.614 4.625-4.614zM60.23 190.281h78.587V431.63H60.23V190.281z"/></svg>