<?xml version="1.0" encoding="utf-8"?><svg width="44" height="42" fill="none" xmlns="http://www.w3.org/2000/svg" viewBox="0 0 44 42"><mask id="aa" fill="#fff"><path d="M43.371 36.996h-7.27l2.574-.768c.426-.127.776-.405.983-.782a1.52 1.52 0 00.115-1.217L30.179 4.924c-.219-.67-.859-1.121-1.594-1.121-.169 0-.337.024-.499.073l-5.897 1.759a1.701 1.701 0 00-.165.058v-.232c0-.88-.75-1.595-1.67-1.595h-6.218a1.71 1.71 0 00-1.043.35 1.716 1.716 0 00-1.044-.35H5.824c-.922 0-1.673.716-1.673 1.595v31.535H.63c-.348 0-.629.269-.629.6 0 .332.281.6.629.6H43.37c.348 0 .629-.268.629-.6 0-.331-.281-.6-.629-.6zm-4.826-2.108a.407.407 0 01-.245.195l-5.897 1.76a.418.418 0 01-.52-.26l-7.072-21.607 6.69-1.994 7.072 21.605a.377.377 0 01-.028.301zm-7.42-23.051l-6.689 1.994-.765-2.336 6.69-1.995.764 2.337zM22.563 6.78l5.899-1.759a.431.431 0 01.123-.018.41.41 0 01.394.278l1.006 3.074-6.688 1.994-1.006-3.071a.395.395 0 01.272-.498zm8.142 30.216h-8.681V10.485l8.68 26.511zM13.722 17.794h7.045v1.671h-7.045v-1.67zm7.045-1.2h-7.045v-5.872h7.045v5.872zm-8.302-4.279H5.408v-1.593h7.057v1.593zm-7.057 1.2h7.057v1.594H5.408v-1.594zm8.314 7.15h7.045v16.331h-7.045V20.665zm.414-15.599h6.217c.228 0 .414.177.414.395v4.06h-7.045v-4.06c0-.218.186-.395.414-.395zm-8.312 0h6.225c.23 0 .416.177.416.395v4.06H5.408v-4.06c0-.218.187-.395.416-.395zm-.416 11.243h7.057v20.687H5.408V16.31z"/></mask><path d="M43.371 36.996h-7.27l2.574-.768c.426-.127.776-.405.983-.782a1.52 1.52 0 00.115-1.217L30.179 4.924c-.219-.67-.859-1.121-1.594-1.121-.169 0-.337.024-.499.073l-5.897 1.759a1.701 1.701 0 00-.165.058v-.232c0-.88-.75-1.595-1.67-1.595h-6.218a1.71 1.71 0 00-1.043.35 1.716 1.716 0 00-1.044-.35H5.824c-.922 0-1.673.716-1.673 1.595v31.535H.63c-.348 0-.629.269-.629.6 0 .332.281.6.629.6H43.37c.348 0 .629-.268.629-.6 0-.331-.281-.6-.629-.6zm-4.826-2.108a.407.407 0 01-.245.195l-5.897 1.76a.418.418 0 01-.52-.26l-7.072-21.607 6.69-1.994 7.072 21.605a.377.377 0 01-.028.301zm-7.42-23.051l-6.689 1.994-.765-2.336 6.69-1.995.764 2.337zM22.563 6.78l5.899-1.759a.431.431 0 01.123-.018.41.41 0 01.394.278l1.006 3.074-6.688 1.994-1.006-3.071a.395.395 0 01.272-.498zm8.142 30.216h-8.681V10.485l8.68 26.511zM13.722 17.794h7.045v1.671h-7.045v-1.67zm7.045-1.2h-7.045v-5.872h7.045v5.872zm-8.302-4.279H5.408v-1.593h7.057v1.593zm-7.057 1.2h7.057v1.594H5.408v-1.594zm8.314 7.15h7.045v16.331h-7.045V20.665zm.414-15.599h6.217c.228 0 .414.177.414.395v4.06h-7.045v-4.06c0-.218.186-.395.414-.395zm-8.312 0h6.225c.23 0 .416.177.416.395v4.06H5.408v-4.06c0-.218.187-.395.416-.395zm-.416 11.243h7.057v20.687H5.408V16.31z" fill="#368CBF"/><path d="M36.1 36.996l-2.86-9.582 2.86 19.582v-10zm2.575-.768l-2.85-9.585-.01.003 2.86 9.582zm.983-.782l-8.765-4.815 8.765 4.815zm.115-1.217l-9.504 3.11v.002l9.504-3.112zM30.179 4.924l-9.506 3.104.003.007 9.503-3.111zm-2.093-1.048l2.858 9.583.01-.003-2.868-9.58zm-5.897 1.759l2.846 9.586.012-.003-2.858-9.583zm-.165.058h-10V20.63l13.81-5.691-3.81-9.246zm-8.93-1.476L7.02 12.162l6.078 4.646 6.074-4.652-6.08-7.94zM4.15 36.997v10h10v-10h-10zm34.394-2.108l-8.765-4.815-.002.004 8.767 4.81zm-.245.194l-2.843-9.588-.008.003-.009.002 2.86 9.583zm-5.897 1.76l-2.86-9.583-.008.003-.01.002 2.878 9.577zm-.52-.261l9.504-3.11v-.001l-9.503 3.11zm-7.072-21.606l-2.857-9.583-9.841 2.934 3.194 9.76 9.504-3.11zm6.69-1.994l9.503-3.111-3.03-9.254-9.33 2.782 2.856 9.583zm7.072 21.605l-9.504 3.11.003.01 9.5-3.12zm-7.448-22.75l2.858 9.583 9.841-2.934-3.195-9.76-9.504 3.11zm-6.689 1.994l-9.504 3.111 3.03 9.254 9.331-2.782-2.857-9.583zm-.765-2.336L20.814 1.91l-9.841 2.935 3.195 9.76 9.503-3.111zm6.69-1.995l9.503-3.112-3.03-9.254-9.331 2.783L30.36 9.5zm-7.798-2.72l2.855 9.584h.003L22.563 6.78zm5.899-1.759l2.858 9.583.007-.002.007-.002-2.872-9.579zm.517.26l-9.506 3.103.003.008 9.503-3.11zm1.006 3.074l2.858 9.582 9.841-2.934-3.195-9.76-9.504 3.112zm-6.688 1.994l-9.504 3.111 3.03 9.255 9.331-2.783-2.857-9.583zM22.29 7.278l-9.51 3.093.003.009.003.009 9.504-3.111zm8.414 29.718v10h13.797l-4.294-13.111-9.503 3.111zm-8.681 0h-10v10h10v-10zm0-26.511l9.503-3.112-19.503 3.112h10zm-8.302 7.31v-10h-10v10h10zm7.045 0h10v-10h-10v10zm0 1.67v10h10v-10h-10zm-7.045 0h-10v10h10v-10zm0-2.87h-10v10h10v-10zm0-5.873v-10h-10v10h10zm7.045 0h10v-10h-10v10zm-8.302 1.593v10h10v-10h-10zm-7.057 0h-10v10h10v-10zm0-1.593v-10h-10v10h10zm7.057 0h10v-10h-10v10zm-7.057 2.793v-10h-10v10h10zm7.057 0h10v-10h-10v10zm0 1.594v10h10v-10h-10zm-7.057 0h-10v10h10v-10zm8.314 5.556v-10h-10v10h10zm7.045 0h10v-10h-10v10zm0 16.331v10h10v-10h-10zm-7.045 0h-10v10h10v-10zm7.045-27.474v10h10v-10h-10zm-7.045 0h-10v10h10v-10zm0-4.06h10v-.005l-10 .004zm-1.257 4.06v10h10v-10h-10zm-7.057 0h-10v10h10v-10zm0 6.787v-10h-10v10h10zm7.057 0h10v-10h-10v10zm0 20.687v10h10v-10h-10zm-7.057 0h-10v10h10v-10zm37.963-10h-7.27v20h7.27v-20zM38.96 46.58l2.574-.769-5.72-19.164-2.574.768 5.72 19.165zm2.564-.765a11.643 11.643 0 006.899-5.554l-17.53-9.628a8.356 8.356 0 014.932-3.99l5.699 19.172zm6.898-5.553a11.52 11.52 0 00.854-9.145L30.27 37.341a8.48 8.48 0 01.623-6.71l17.53 9.63zm.855-9.144L39.683 1.812 20.676 8.035l9.593 29.305 19.008-6.223zM39.685 1.82c-1.636-5.012-6.283-8.017-11.1-8.017v20a8.345 8.345 0 01-7.912-5.775L39.685 1.82zm-11.1-8.017c-1.141 0-2.275.166-3.366.493l5.734 19.16a8.26 8.26 0 01-2.368.347v-20zm-3.357.49L19.33-3.948l5.717 19.166 5.897-1.76-5.716-19.165zm-5.886 1.755c-.415.124-.792.26-1.128.4l7.62 18.49c-.23.095-.497.193-.799.283L19.342-3.952zm12.682 9.645v-.232h-20v.232h20zm0-.232c0-6.831-5.666-11.595-11.67-11.595v20c-4.163 0-8.33-3.333-8.33-8.405h20zM20.354-6.134h-6.218v20h6.217v-20zm-6.218 0c-2.652 0-5.14.893-7.122 2.411l12.159 15.88a8.29 8.29 0 01-5.037 1.709v-20zm5.03 2.406a11.716 11.716 0 00-7.117-2.406v20a8.284 8.284 0 01-5.028-1.704l12.145-15.89zm-7.117-2.406H5.824v20h6.225v-20zm-6.225 0C-.171-6.134-5.85-1.381-5.85 5.461h20c0 5.083-4.176 8.405-8.327 8.405v-20zM-5.85 5.461v31.535h20V5.461h-20zm10 21.535H.63v20H4.15v-20zm-3.522 0C-4.798 26.996-10 31.31-10 37.596h20c0 5.625-4.64 9.4-9.371 9.4v-20zM-10 37.596c0 6.288 5.202 10.6 10.629 10.6v-20c4.732 0 9.371 3.776 9.371 9.4h-20zm10.629 10.6H43.37v-20H.63v20zm42.742 0c5.427 0 10.629-4.312 10.629-10.6H34c0-5.624 4.64-9.4 9.371-9.4v20zM54 37.596c0-6.287-5.202-10.6-10.629-10.6v20c-4.732 0-9.371-3.775-9.371-9.4h20zm-24.222-7.518a9.593 9.593 0 015.68-4.583l5.684 19.175a10.407 10.407 0 006.17-4.97l-17.534-9.622zM35.44 25.5l-5.897 1.76 5.72 19.165 5.897-1.76L35.44 25.5zm-5.914 1.765a9.574 9.574 0 012.754-.405v20a10.43 10.43 0 003-.44l-5.754-19.155zm2.754-.405c3.897 0 7.74 2.435 9.107 6.611L22.38 39.693c1.474 4.504 5.644 7.168 9.9 7.168v-20zm9.107 6.61l-7.072-21.605-19.008 6.222 7.073 21.606 19.007-6.222zm-13.719-8.91l6.69-1.995L28.642 3.4l-6.689 1.994 5.714 19.166zm-5.671-8.467l7.072 21.605 19.008-6.223-7.073-21.604-19.007 6.222zm7.075 21.614a9.623 9.623 0 01.708-7.633l17.53 9.629a10.377 10.377 0 00.764-8.237l-19.002 6.241zm-.804-35.453L21.58 4.248l5.714 19.166 6.69-1.994-5.715-19.166zm5.672 8.466l-.765-2.337-19.007 6.223.764 2.336L33.94 10.72zm-7.41 10.357l6.688-1.994L27.503-.083l-6.69 1.994 5.716 19.166zm-5.673-8.466l.765 2.337 19.007-6.223-.765-2.337-19.007 6.223zm4.564 3.752l5.899-1.759-5.716-19.166-5.899 1.76 5.716 19.165zm5.913-1.763a9.569 9.569 0 01-2.749.403v-20a10.43 10.43 0 00-2.996.44L31.334 14.6zm-2.749.403c-3.934 0-7.76-2.475-9.112-6.619l19.013-6.206c-1.462-4.478-5.603-7.175-9.9-7.175v20zm-9.11-6.61l1.007 3.073 19.007-6.223-1.006-3.073-19.007 6.222zm7.653-9.621L20.438.766l5.716 19.166 6.69-1.994-5.716-19.166zM32.8 7.238l-1.005-3.07-19.008 6.22 1.006 3.072L32.8 7.238zm-.999-3.053c1.767 5.434-1.52 10.73-6.383 12.18l-5.71-19.169c-5.299 1.579-8.83 7.322-6.926 13.175L31.8 4.185zm-1.096 22.811h-8.681v20h8.68v-20zm1.319 10V10.485h-20v26.511h20zm-19.504-23.4l8.681 26.512 19.007-6.223-8.68-26.512-19.008 6.224zm1.202 14.198h7.045v-20h-7.045v20zm-2.955-10v1.671h20v-1.67h-20zm10-8.329h-7.045v20h7.045v-20zm2.955 10v-1.67h-20v1.67h20zm-2.955-12.87h-7.045v20h7.045v-20zm2.955 10v-5.873h-20v5.872h20zm-10 4.127h7.045v-20h-7.045v20zm-2.955-10v5.872h20v-5.872h-20zm1.698-8.407H5.408v20h7.057v-20zm2.943 10v-1.593h-20v1.593h20zm-10 8.407h7.057v-20H5.408v20zm-2.943-10v1.593h20v-1.593h-20zm2.943 12.793h7.057v-20H5.408v20zm-2.943-10v1.594h20v-1.594h-20zm10-8.406H5.408v20h7.057v-20zm2.943 10v-1.594h-20v1.594h20zm-1.686 15.556h7.045v-20h-7.045v20zm-2.955-10v16.331h20V20.665h-20zm10 6.331h-7.045v20h7.045v-20zm2.955 10V20.665h-20v16.331h20zm-9.586-21.93h6.217v-20h-6.217v20zm6.217 0c-4.868 0-9.586-3.883-9.586-9.605h20c0-6.157-5.09-10.395-10.414-10.395v20zm-9.586-9.605v4.06h20v-4.06h-20zm10-5.94h-7.045v20h7.045v-20zm2.955 10v-4.06h-20v4.06h20zm0-4.064c.003 5.725-4.717 9.609-9.586 9.609v-20c-5.325 0-10.416 4.24-10.414 10.4l20-.009zM5.824 15.066h6.225v-20H5.824v20zm6.225 0c-4.794 0-9.584-3.813-9.584-9.605h20c0-6.227-5.163-10.395-10.416-10.395v20zM2.465 5.461v4.06h20v-4.06h-20zm10-5.94H5.408v20h7.057v-20zm2.943 10v-4.06h-20v4.06h20zm0-4.06c0 5.762-4.758 9.605-9.584 9.605v-20C.54-4.934-4.592-.736-4.592 5.461h20zm-10 20.848h7.057v-20H5.408v20zm-2.943-10v20.687h20V16.31h-20zm10 10.687H5.408v20h7.057v-20zm2.943 10V16.31h-20v20.687h20z" fill="#368CBF" mask="url(#aa)"/></svg>