<?xml version="1.0" encoding="utf-8"?><svg width="38" height="43" fill="none" xmlns="http://www.w3.org/2000/svg" viewBox="0 0 38 43"><path d="M22.448 25.409H2.59v-21.5h19.858v8.219l1.727.417V3.638c.515-.339.863-.962.863-1.683C25.038.875 24.265 0 23.311 0H1.727C.773 0 0 .876 0 1.955c0 .722.35 1.344.863 1.683v22.748c0 .54.387.977.863.977h5.321L3.942 40.54c-.245 1.042.303 2.115 1.224 2.393.15.045.3.067.447.067.762 0 1.462-.578 1.668-1.452l3.342-14.185h3.792l3.342 14.185c.207.874.904 1.452 1.668 1.452.148 0 .296-.021.447-.067.921-.278 1.468-1.35 1.224-2.392L17.99 27.364h5.321c.477 0 .863-.438.863-.977v-5.845l-1.728-.418v5.285zM29.792 14.179c1.692 0 3.067-1.554 3.067-3.47 0-1.917-1.375-3.47-3.067-3.47-1.69 0-3.065 1.552-3.065 3.47 0 1.916 1.375 3.47 3.065 3.47z" fill="#368CBF"/><path d="M37.883 25.686l-3.171-9.29c-.255-.754-.896-1.25-1.61-1.25h-1.684c-.474 0-.888.234-1.197.586l.804 6.68-1.233 1.183-1.231-1.183.803-6.68c-.311-.352-.724-.586-1.198-.586h-1.501l-9.9-2.395c-.932-.225-1.85.449-2.05 1.504-.198 1.056.396 2.095 1.329 2.32L26.12 19.01a1.5 1.5 0 00.32.042v9.041l-.662 12.835c-.053 1.078.672 2.002 1.626 2.065.033.003.068.004.1.004.909 0 1.669-.802 1.724-1.842l.566-11.008.566 11.008c.054 1.04.816 1.842 1.724 1.842.033 0 .068-.001.101-.004.953-.063 1.679-.987 1.624-2.065l-.66-12.835v-5.443l1.517 4.444c.343 1.008 1.345 1.506 2.234 1.119.885-.389 1.327-1.52.983-2.528zM3.886 13.928v8.307c0 .54.386.977.862.977.478 0 .864-.438.864-.977v-8.307c0-.54-.387-.978-.864-.978s-.862.438-.862.978zM7.77 7.085v15.148c0 .54.386.977.864.977.477 0 .862-.437.862-.977V7.085c0-.54-.386-.978-.862-.978-.478 0-.864.438-.864.978zM11.656 10.993v11.24c0 .541.386.977.862.977.478 0 .864-.437.864-.977v-11.24c0-.54-.386-.977-.864-.977-.476 0-.862.437-.862.977z" fill="#368CBF"/></svg>