<?xml version="1.0" encoding="utf-8"?><svg width="34" height="49" fill="none" xmlns="http://www.w3.org/2000/svg" viewBox="0 0 34 49"><path d="M31.663 39.11v-.887H34v-1.178H0v1.178h.018v9.604H0V49h34v-1.173h-2.337v-.524H2.39v-.384h-.04v-.222h29.313v-.495H2.367v-.183H2.35v-.224h.017v-.082h29.296v-.678H2.314v-.125h-.018v-.222h.018v-.138h29.349v-.616H2.287v-.485h29.376v-.583H2.287v-.486h29.376v-.614H2.339v-.486h29.324v-.616H2.314v-.485h29.349v-.582H2.314v-.487h29.349zM29.693 35.629h-.013v-6.044h.013v-.741H3.42v.74h1.804v.523H28.15v.487H5.224v.58H28.15v.489H5.224v.613h22.874v.267h.033v.22H5.224v.616h22.9v.202h.007v.22h-.008v.063H5.224v.582h22.9v.243h.007v.221h-.008v.021H5.224v.698H3.42v.739h26.273v-.74zM8.09 27.934h17.814c.836 0 1.54-.519 1.976-1.46.576-1.24.57-3.019-.019-4.32l-.152-.338c-.57-1.276-1.906-4.262-3.287-6.81-.466-.854-.932-1.651-1.354-2.374-.676-1.156-1.518-2.593-1.522-3.019.05-1.872.015-6.302.003-7.67h.881V0H11.28v1.941h1.17c-.015 1.368-.047 5.797.005 7.668-.008.429-.85 1.866-1.527 3.021-.421.721-.888 1.519-1.352 2.372-1.381 2.547-2.716 5.535-3.289 6.81l-.15.338c-.59 1.304-.596 3.081-.02 4.322.435.943 1.139 1.462 1.973 1.462zm-.84-4.99l.153-.345c.563-1.257 1.883-4.2 3.233-6.692.454-.84.91-1.62 1.325-2.329 1.18-2.02 1.795-3.114 1.772-4.02-.046-1.666-.022-5.542-.006-7.216h6.543c.014 1.674.04 5.55-.008 7.217-.025.903.59 2 1.772 4.02.413.708.873 1.489 1.327 2.328 1.35 2.49 2.668 5.435 3.23 6.692l.155.345c.36.802.372 1.975.026 2.72-.205.44-.497.663-.87.663H8.09c-.37 0-.664-.223-.869-.664-.345-.745-.334-1.917.03-2.719z" fill="#368CBF"/><path d="M9.137 25.927h15.725c.494 0 .904-.305 1.164-.86.337-.73.333-1.774-.014-2.54l-.089-.201c-.337-.748-1.121-2.506-1.932-4.002-.21-.386-.415-.74-.614-1.08H10.622c-.199.34-.403.696-.614 1.08-.812 1.496-1.598 3.253-1.934 4.002l-.09.2c-.347.767-.348 1.81-.011 2.541.26.553.673.86 1.164.86z" fill="#368CBF"/></svg>