<?xml version="1.0" encoding="utf-8"?><svg width="32" height="34" fill="none" xmlns="http://www.w3.org/2000/svg" viewBox="0 0 32 34"><path d="M23.938.171h0c-.064-.026-.152-.048-.365-.064A19.175 19.175 0 0022.477.07c-1.1-.016-3.064-.017-6.663-.017L14.488.052C11.032.048 9.302.046 8.378.096c-.518.027-.776.071-.94.137a.943.943 0 00-.3.203l-.09.077c-.167.146-.372.42-.463.607a1.267 1.267 0 00-.097.246c-.023.091-.04.21-.05.406-.022.394-.022 1.09-.022 2.483 0 .766.006 1.482.014 2.016a41.715 41.715 0 00.022.838 1.577 1.577 0 00.005.071l.001.005h0c.011.044.035.076.084.106a.92.92 0 00.254.087c.183.035.39.091.466.123a1.69 1.69 0 00.043-.359c.019-.387.026-1.125.037-2.507v-.152c.01-1.521.016-2.284.072-2.7.03-.215.073-.345.145-.44a.869.869 0 01.246-.204l.028-.018c.056-.038.13-.062.312-.08.183-.017.483-.03.997-.038 1.028-.017 2.92-.019 6.463-.019h7.593v.05l.036 3.006.036 2.993.188.318s0 0 0 0a2.94 2.94 0 00.452.554l.018.015c.127.111.217.19.328.25.115.061.255.104.484.134.437.057 1.18.067 2.654.086l.266.003 2.995.036h.05v.05l.021 11.626h0c.004 3.999.002 6.927-.008 8.88-.005.976-.012 1.71-.022 2.21a24.732 24.732 0 01-.025.743.52.52 0 01-.012.087 1.504 1.504 0 01-.35.583c-.16.174-.354.318-.529.368h0a1.806 1.806 0 01-.104.01 48.416 48.416 0 01-.933.024 291 291 0 01-2.47.024c-2.02.012-4.678.018-7.334.017-2.656 0-5.308-.007-7.314-.02a259.136 259.136 0 01-2.443-.026 41.7 41.7 0 01-.908-.025 1.255 1.255 0 01-.06-.005.183.183 0 01-.04-.008c-.265-.098-.526-.336-.682-.624a.726.726 0 01-.072-.262 6.965 6.965 0 01-.044-.63c-.022-.602-.035-1.638-.05-3.463L23.939.171zm0 0c.053.02.146.083.305.216M23.938.17l.305.216m.1 6.562h-.001a.512.512 0 01-.093-.182 1.808 1.808 0 01-.05-.366c-.022-.353-.03-.983-.04-2.188m.183 2.736l-.183-2.736m.183 2.736h0m0 0h0m-.183-2.736a70.31 70.31 0 01.001-1.766c.004-.227.009-.411.015-.539a3.12 3.12 0 01.015-.191.106.106 0 01.005-.019.06.06 0 01.009-.015.052.052 0 01.068-.012 11.627 11.627 0 015.647 5.68.366.366 0 01.02.027.053.053 0 01.007.027.051.051 0 01-.024.044h0a.06.06 0 01-.014.006 3.858 3.858 0 01-.202.015c-.125.004-.305.007-.526.01-.442.004-1.052.004-1.724-.003-1.14-.011-1.753-.018-2.11-.04a2.285 2.285 0 01-.384-.046.705.705 0 01-.209-.086m-.594-3.092l.594 3.092m-.41-.355c.09.111.267.273.41.355m-.41-.355l.41.355m-.51-6.918c.158.131.374.327.67.606m-.67-.606l.67.606m0 0c.59.558 1.498 1.447 2.884 2.818M24.912.993l2.885 2.818m0 0a237.446 237.446 0 012.587 2.6m-2.587-2.6l2.587 2.6m0 0c.33.338.598.617.79.821a10.864 10.864 0 01.29.324l.026.036m-1.106-1.181l1.106 1.181m0 0c.026.054.049.128.067.396.018.269.031.726.041 1.54.02 1.628.027 4.681.038 10.506L31.49 7.592zM7.29 23.883l.037 4.105 24.309-7.954.014 12.181-.183.412c-.197.427-.666.927-1.097 1.158h0c-.05.027-.114.051-.354.07-.24.02-.649.033-1.385.043-1.47.02-4.242.028-9.562.039l-11.06.014-.372-.174s0 0 0 0c-.458-.23-.89-.7-1.08-1.197-.066-.181-.102-.31-.12-1.017-.02-.709-.021-1.993-.021-4.485v-4.916l.39.772h0l.485.95z" fill="#fff" stroke="#fff"/><path d="M3.393 4.812h0c-.118-.029-.228-.028-.467.056-.242.085-.607.252-1.233.55h0c-.676.319-1.05.503-1.268.65a.9.9 0 00-.225.2.707.707 0 00-.105.215.718.718 0 00-.044.192.634.634 0 00.04.232c.07.21.232.55.558 1.221h0l.52 1.08 1.795-.867h0c.509-.243.98-.465 1.33-.626a22.6 22.6 0 01.552-.245.765.765 0 01.055-.019.08.08 0 01.02-.002.16.16 0 01.063.017.813.813 0 01.204.157h.001a2.757 2.757 0 01.074.123c.035.065.083.154.14.265.115.221.273.53.46.904.376.749.874 1.758 1.404 2.85h0a258.791 258.791 0 001.392 2.843 75.887 75.887 0 00.587 1.15l.04.072.016.025-5.91-11.043zm0 0a.7.7 0 01.403.26c.128.155.26.393.429.765h0m-.832-1.025l.832 1.025m0 0c.137.297.232.486.305.597.036.055.07.096.104.12.036.026.077.034.118.017h0m-.527-.734l.527.734m0 0c.244-.102.367-.15.452-.162m-.452.162l.452-.162m-.933-.593c-.34-.745-.535-.974-.867-1.052l.867 1.052zm0 0c.274.594.375.744.462.709l-.462-.71zm.933.593a.208.208 0 01.096.005m-.096-.005l.096.005m0 0a.52.52 0 01.107.053M5.3 6.414l.107.053m0 0a.278.278 0 01.059.066c.03.04.068.099.116.178.095.16.226.4.405.748.359.694.909 1.808 1.746 3.533M5.407 6.467l3.895 9.388a.317.317 0 00.368.075.359.359 0 00.217-.332l-.002-.005a10.77 10.77 0 00-.165-.4c-.11-.246-.268-.592-.464-1.01-.391-.84-.93-1.97-1.523-3.19m0 0l.045-.022m-.045.021l.045-.021m0 0c1.184 2.44 2.159 4.524 2.159 4.624 0 .365-.434.552-.672.294l-1.487-4.918z" fill="#fff" stroke="#fff"/><path d="M8.497 16.472h0c.111.136.287.265.47.361.183.096.38.162.535.166h.002c.015 0 .027.002.04.009a.19.19 0 01.054.043c.047.05.109.141.201.308.185.332.486.946 1.031 2.074.325.677.62 1.3.835 1.757a41.761 41.761 0 01.319.7l.01.024a87.486 87.486 0 01-1.869.939s0 0 0 0l-1.86.888-.109-.22h0a25481.109 25481.109 0 00-3.327-6.843l-3.176-6.543 1.333-.644h0c.76-.373 1.45-.7 1.54-.735h.002c.039-.016.054-.018.07-.012.018.007.047.03.094.1.094.14.237.425.508.982.31.644 1.133 2.34 1.834 3.78.346.72.684 1.4.948 1.918.133.259.247.477.335.64l.111.2c.03.05.053.088.07.108zM12.484 22.833v0zm-.014.047a.389.389 0 01.017-.005 113.308 113.308 0 00.04.608l.102 1.523c.08 1.182.144 2.325.144 2.545 0 .117-.007.212-.022.287a.398.398 0 01-.062.161.122.122 0 01-.085.052.28.28 0 01-.143-.03.593.593 0 01-.068-.048 5.227 5.227 0 01-.145-.115c-.117-.097-.273-.23-.455-.388a99.708 99.708 0 01-1.284-1.14 94.678 94.678 0 01-1.244-1.138c-.168-.157-.307-.29-.404-.386a3.283 3.283 0 01-.111-.114c-.004-.004-.008-.008-.01-.012a1.8 1.8 0 01.105-.064c.093-.054.23-.128.398-.215a72.863 72.863 0 012.935-1.405c.146-.064.237-.1.292-.116z" fill="#fff" stroke="#fff"/><path stroke="#fff" d="M10.845 10.495H25.86M10.845 12.941H25.86M10.845 15.684H25.86M10.845 18.189H25.86M10.845 20.561H25.86M10.845 23.196H25.86"/><path transform="translate(10.845 25.833)" stroke="#fff" d="M0-.5h15.016"/><path transform="matrix(1 0 0 1 10.845 28.469)" stroke="#fff" d="M0-.5h15.016"/></svg>