<?xml version="1.0" encoding="utf-8"?><svg width="21" height="21" fill="none" xmlns="http://www.w3.org/2000/svg" viewBox="0 0 21 21"><path d="M14.372 4.07L4.307 14.137a1.49 1.49 0 000 2.11 1.49 1.49 0 002.11 0L16.483 6.182l-2.11-2.11zm-.577-.575l-1.12-1.119c-.031.023-.06.044-.09.073L2.52 12.513a.805.805 0 000 1.136.805.805 0 001.136 0L13.72 3.583c.03-.027.05-.058.074-.088zm3.242 3.24c-.031.024-.06.045-.09.074L6.884 16.874a.805.805 0 000 1.137.805.805 0 001.136 0L18.085 7.944c.027-.027.05-.059.073-.088l-1.12-1.121zM5.74 17.71c-3.216 0-2.756-2.755-2.756-2.755-1.377 0-1.606-.918-1.606-.918L0 20.694l6.888-1.606c-1.285-.278-1.149-1.378-1.149-1.378zM19.946 3.083L17.497.635a2.161 2.161 0 00-3.06 0l-1.062 1.06 5.508 5.509 1.06-1.061a2.16 2.16 0 00.003-3.06z" fill="#368CBF"/></svg>