<?xml version="1.0" encoding="utf-8"?><svg width="38" height="37" fill="none" xmlns="http://www.w3.org/2000/svg" viewBox="0 0 38 37"><path d="M2.482 7.375C.973 8.981.116 11.12.066 13.407L0 36.977 24.398 37h.023c1.95-.057 4.164-.285 5.793-1.519 1.632-1.234 2.474-3.32 2.57-6.376l.005-.064.07-24.184-24.383-.064a8.187 8.187 0 00-5.994 2.582zm29 21.579l-.004.102c-.17 5.426-2.625 6.531-7.092 6.668l-23.08-.02.063-22.274c.089-4.12 3.21-7.353 7.107-7.365l23.068.06-.062 22.829z" fill="#368CBF"/><path d="M8.488 0v1.272h28.205v27.542H38V0H8.488zM7.82 28.383h17.271v1.272H7.821v-1.272zM7.82 20.321h17.271v1.272H7.821v-1.272z" fill="#368CBF"/><path d="M7.82 11.78h17.271v1.272H7.821v-1.273z" fill="#368CBF"/></svg>