<?xml version="1.0" encoding="utf-8"?><svg viewBox="0 0 45 49" xmlns="http://www.w3.org/2000/svg" xmlns:xlink="http://www.w3.org/1999/xlink"><style>:root>svg{display:none}:root>svg:target{display:block}</style><svg fill="none" viewBox="0 0 44 42" id="books" xmlns="http://www.w3.org/2000/svg"><mask id="aa" fill="#fff"><path d="M43.371 36.996h-7.27l2.574-.768c.426-.127.776-.405.983-.782a1.52 1.52 0 00.115-1.217L30.179 4.924c-.219-.67-.859-1.121-1.594-1.121-.169 0-.337.024-.499.073l-5.897 1.759a1.701 1.701 0 00-.165.058v-.232c0-.88-.75-1.595-1.67-1.595h-6.218a1.71 1.71 0 00-1.043.35 1.716 1.716 0 00-1.044-.35H5.824c-.922 0-1.673.716-1.673 1.595v31.535H.63c-.348 0-.629.269-.629.6 0 .332.281.6.629.6H43.37c.348 0 .629-.268.629-.6 0-.331-.281-.6-.629-.6zm-4.826-2.108a.407.407 0 01-.245.195l-5.897 1.76a.418.418 0 01-.52-.26l-7.072-21.607 6.69-1.994 7.072 21.605a.377.377 0 01-.028.301zm-7.42-23.051l-6.689 1.994-.765-2.336 6.69-1.995.764 2.337zM22.563 6.78l5.899-1.759a.431.431 0 01.123-.018.41.41 0 01.394.278l1.006 3.074-6.688 1.994-1.006-3.071a.395.395 0 01.272-.498zm8.142 30.216h-8.681V10.485l8.68 26.511zM13.722 17.794h7.045v1.671h-7.045v-1.67zm7.045-1.2h-7.045v-5.872h7.045v5.872zm-8.302-4.279H5.408v-1.593h7.057v1.593zm-7.057 1.2h7.057v1.594H5.408v-1.594zm8.314 7.15h7.045v16.331h-7.045V20.665zm.414-15.599h6.217c.228 0 .414.177.414.395v4.06h-7.045v-4.06c0-.218.186-.395.414-.395zm-8.312 0h6.225c.23 0 .416.177.416.395v4.06H5.408v-4.06c0-.218.187-.395.416-.395zm-.416 11.243h7.057v20.687H5.408V16.31z"/></mask><path d="M43.371 36.996h-7.27l2.574-.768c.426-.127.776-.405.983-.782a1.52 1.52 0 00.115-1.217L30.179 4.924c-.219-.67-.859-1.121-1.594-1.121-.169 0-.337.024-.499.073l-5.897 1.759a1.701 1.701 0 00-.165.058v-.232c0-.88-.75-1.595-1.67-1.595h-6.218a1.71 1.71 0 00-1.043.35 1.716 1.716 0 00-1.044-.35H5.824c-.922 0-1.673.716-1.673 1.595v31.535H.63c-.348 0-.629.269-.629.6 0 .332.281.6.629.6H43.37c.348 0 .629-.268.629-.6 0-.331-.281-.6-.629-.6zm-4.826-2.108a.407.407 0 01-.245.195l-5.897 1.76a.418.418 0 01-.52-.26l-7.072-21.607 6.69-1.994 7.072 21.605a.377.377 0 01-.028.301zm-7.42-23.051l-6.689 1.994-.765-2.336 6.69-1.995.764 2.337zM22.563 6.78l5.899-1.759a.431.431 0 01.123-.018.41.41 0 01.394.278l1.006 3.074-6.688 1.994-1.006-3.071a.395.395 0 01.272-.498zm8.142 30.216h-8.681V10.485l8.68 26.511zM13.722 17.794h7.045v1.671h-7.045v-1.67zm7.045-1.2h-7.045v-5.872h7.045v5.872zm-8.302-4.279H5.408v-1.593h7.057v1.593zm-7.057 1.2h7.057v1.594H5.408v-1.594zm8.314 7.15h7.045v16.331h-7.045V20.665zm.414-15.599h6.217c.228 0 .414.177.414.395v4.06h-7.045v-4.06c0-.218.186-.395.414-.395zm-8.312 0h6.225c.23 0 .416.177.416.395v4.06H5.408v-4.06c0-.218.187-.395.416-.395zm-.416 11.243h7.057v20.687H5.408V16.31z" fill="#368CBF"/><path d="M36.1 36.996l-2.86-9.582 2.86 19.582v-10zm2.575-.768l-2.85-9.585-.01.003 2.86 9.582zm.983-.782l-8.765-4.815 8.765 4.815zm.115-1.217l-9.504 3.11v.002l9.504-3.112zM30.179 4.924l-9.506 3.104.003.007 9.503-3.111zm-2.093-1.048l2.858 9.583.01-.003-2.868-9.58zm-5.897 1.759l2.846 9.586.012-.003-2.858-9.583zm-.165.058h-10V20.63l13.81-5.691-3.81-9.246zm-8.93-1.476L7.02 12.162l6.078 4.646 6.074-4.652-6.08-7.94zM4.15 36.997v10h10v-10h-10zm34.394-2.108l-8.765-4.815-.002.004 8.767 4.81zm-.245.194l-2.843-9.588-.008.003-.009.002 2.86 9.583zm-5.897 1.76l-2.86-9.583-.008.003-.01.002 2.878 9.577zm-.52-.261l9.504-3.11v-.001l-9.503 3.11zm-7.072-21.606l-2.857-9.583-9.841 2.934 3.194 9.76 9.504-3.11zm6.69-1.994l9.503-3.111-3.03-9.254-9.33 2.782 2.856 9.583zm7.072 21.605l-9.504 3.11.003.01 9.5-3.12zm-7.448-22.75l2.858 9.583 9.841-2.934-3.195-9.76-9.504 3.11zm-6.689 1.994l-9.504 3.111 3.03 9.254 9.331-2.782-2.857-9.583zm-.765-2.336L20.814 1.91l-9.841 2.935 3.195 9.76 9.503-3.111zm6.69-1.995l9.503-3.112-3.03-9.254-9.331 2.783L30.36 9.5zm-7.798-2.72l2.855 9.584h.003L22.563 6.78zm5.899-1.759l2.858 9.583.007-.002.007-.002-2.872-9.579zm.517.26l-9.506 3.103.003.008 9.503-3.11zm1.006 3.074l2.858 9.582 9.841-2.934-3.195-9.76-9.504 3.112zm-6.688 1.994l-9.504 3.111 3.03 9.255 9.331-2.783-2.857-9.583zM22.29 7.278l-9.51 3.093.003.009.003.009 9.504-3.111zm8.414 29.718v10h13.797l-4.294-13.111-9.503 3.111zm-8.681 0h-10v10h10v-10zm0-26.511l9.503-3.112-19.503 3.112h10zm-8.302 7.31v-10h-10v10h10zm7.045 0h10v-10h-10v10zm0 1.67v10h10v-10h-10zm-7.045 0h-10v10h10v-10zm0-2.87h-10v10h10v-10zm0-5.873v-10h-10v10h10zm7.045 0h10v-10h-10v10zm-8.302 1.593v10h10v-10h-10zm-7.057 0h-10v10h10v-10zm0-1.593v-10h-10v10h10zm7.057 0h10v-10h-10v10zm-7.057 2.793v-10h-10v10h10zm7.057 0h10v-10h-10v10zm0 1.594v10h10v-10h-10zm-7.057 0h-10v10h10v-10zm8.314 5.556v-10h-10v10h10zm7.045 0h10v-10h-10v10zm0 16.331v10h10v-10h-10zm-7.045 0h-10v10h10v-10zm7.045-27.474v10h10v-10h-10zm-7.045 0h-10v10h10v-10zm0-4.06h10v-.005l-10 .004zm-1.257 4.06v10h10v-10h-10zm-7.057 0h-10v10h10v-10zm0 6.787v-10h-10v10h10zm7.057 0h10v-10h-10v10zm0 20.687v10h10v-10h-10zm-7.057 0h-10v10h10v-10zm37.963-10h-7.27v20h7.27v-20zM38.96 46.58l2.574-.769-5.72-19.164-2.574.768 5.72 19.165zm2.564-.765a11.643 11.643 0 006.899-5.554l-17.53-9.628a8.356 8.356 0 014.932-3.99l5.699 19.172zm6.898-5.553a11.52 11.52 0 00.854-9.145L30.27 37.341a8.48 8.48 0 01.623-6.71l17.53 9.63zm.855-9.144L39.683 1.812 20.676 8.035l9.593 29.305 19.008-6.223zM39.685 1.82c-1.636-5.012-6.283-8.017-11.1-8.017v20a8.345 8.345 0 01-7.912-5.775L39.685 1.82zm-11.1-8.017c-1.141 0-2.275.166-3.366.493l5.734 19.16a8.26 8.26 0 01-2.368.347v-20zm-3.357.49L19.33-3.948l5.717 19.166 5.897-1.76-5.716-19.165zm-5.886 1.755c-.415.124-.792.26-1.128.4l7.62 18.49c-.23.095-.497.193-.799.283L19.342-3.952zm12.682 9.645v-.232h-20v.232h20zm0-.232c0-6.831-5.666-11.595-11.67-11.595v20c-4.163 0-8.33-3.333-8.33-8.405h20zM20.354-6.134h-6.218v20h6.217v-20zm-6.218 0c-2.652 0-5.14.893-7.122 2.411l12.159 15.88a8.29 8.29 0 01-5.037 1.709v-20zm5.03 2.406a11.716 11.716 0 00-7.117-2.406v20a8.284 8.284 0 01-5.028-1.704l12.145-15.89zm-7.117-2.406H5.824v20h6.225v-20zm-6.225 0C-.171-6.134-5.85-1.381-5.85 5.461h20c0 5.083-4.176 8.405-8.327 8.405v-20zM-5.85 5.461v31.535h20V5.461h-20zm10 21.535H.63v20H4.15v-20zm-3.522 0C-4.798 26.996-10 31.31-10 37.596h20c0 5.625-4.64 9.4-9.371 9.4v-20zM-10 37.596c0 6.288 5.202 10.6 10.629 10.6v-20c4.732 0 9.371 3.776 9.371 9.4h-20zm10.629 10.6H43.37v-20H.63v20zm42.742 0c5.427 0 10.629-4.312 10.629-10.6H34c0-5.624 4.64-9.4 9.371-9.4v20zM54 37.596c0-6.287-5.202-10.6-10.629-10.6v20c-4.732 0-9.371-3.775-9.371-9.4h20zm-24.222-7.518a9.593 9.593 0 015.68-4.583l5.684 19.175a10.407 10.407 0 006.17-4.97l-17.534-9.622zM35.44 25.5l-5.897 1.76 5.72 19.165 5.897-1.76L35.44 25.5zm-5.914 1.765a9.574 9.574 0 012.754-.405v20a10.43 10.43 0 003-.44l-5.754-19.155zm2.754-.405c3.897 0 7.74 2.435 9.107 6.611L22.38 39.693c1.474 4.504 5.644 7.168 9.9 7.168v-20zm9.107 6.61l-7.072-21.605-19.008 6.222 7.073 21.606 19.007-6.222zm-13.719-8.91l6.69-1.995L28.642 3.4l-6.689 1.994 5.714 19.166zm-5.671-8.467l7.072 21.605 19.008-6.223-7.073-21.604-19.007 6.222zm7.075 21.614a9.623 9.623 0 01.708-7.633l17.53 9.629a10.377 10.377 0 00.764-8.237l-19.002 6.241zm-.804-35.453L21.58 4.248l5.714 19.166 6.69-1.994-5.715-19.166zm5.672 8.466l-.765-2.337-19.007 6.223.764 2.336L33.94 10.72zm-7.41 10.357l6.688-1.994L27.503-.083l-6.69 1.994 5.716 19.166zm-5.673-8.466l.765 2.337 19.007-6.223-.765-2.337-19.007 6.223zm4.564 3.752l5.899-1.759-5.716-19.166-5.899 1.76 5.716 19.165zm5.913-1.763a9.569 9.569 0 01-2.749.403v-20a10.43 10.43 0 00-2.996.44L31.334 14.6zm-2.749.403c-3.934 0-7.76-2.475-9.112-6.619l19.013-6.206c-1.462-4.478-5.603-7.175-9.9-7.175v20zm-9.11-6.61l1.007 3.073 19.007-6.223-1.006-3.073-19.007 6.222zm7.653-9.621L20.438.766l5.716 19.166 6.69-1.994-5.716-19.166zM32.8 7.238l-1.005-3.07-19.008 6.22 1.006 3.072L32.8 7.238zm-.999-3.053c1.767 5.434-1.52 10.73-6.383 12.18l-5.71-19.169c-5.299 1.579-8.83 7.322-6.926 13.175L31.8 4.185zm-1.096 22.811h-8.681v20h8.68v-20zm1.319 10V10.485h-20v26.511h20zm-19.504-23.4l8.681 26.512 19.007-6.223-8.68-26.512-19.008 6.224zm1.202 14.198h7.045v-20h-7.045v20zm-2.955-10v1.671h20v-1.67h-20zm10-8.329h-7.045v20h7.045v-20zm2.955 10v-1.67h-20v1.67h20zm-2.955-12.87h-7.045v20h7.045v-20zm2.955 10v-5.873h-20v5.872h20zm-10 4.127h7.045v-20h-7.045v20zm-2.955-10v5.872h20v-5.872h-20zm1.698-8.407H5.408v20h7.057v-20zm2.943 10v-1.593h-20v1.593h20zm-10 8.407h7.057v-20H5.408v20zm-2.943-10v1.593h20v-1.593h-20zm2.943 12.793h7.057v-20H5.408v20zm-2.943-10v1.594h20v-1.594h-20zm10-8.406H5.408v20h7.057v-20zm2.943 10v-1.594h-20v1.594h20zm-1.686 15.556h7.045v-20h-7.045v20zm-2.955-10v16.331h20V20.665h-20zm10 6.331h-7.045v20h7.045v-20zm2.955 10V20.665h-20v16.331h20zm-9.586-21.93h6.217v-20h-6.217v20zm6.217 0c-4.868 0-9.586-3.883-9.586-9.605h20c0-6.157-5.09-10.395-10.414-10.395v20zm-9.586-9.605v4.06h20v-4.06h-20zm10-5.94h-7.045v20h7.045v-20zm2.955 10v-4.06h-20v4.06h20zm0-4.064c.003 5.725-4.717 9.609-9.586 9.609v-20c-5.325 0-10.416 4.24-10.414 10.4l20-.009zM5.824 15.066h6.225v-20H5.824v20zm6.225 0c-4.794 0-9.584-3.813-9.584-9.605h20c0-6.227-5.163-10.395-10.416-10.395v20zM2.465 5.461v4.06h20v-4.06h-20zm10-5.94H5.408v20h7.057v-20zm2.943 10v-4.06h-20v4.06h20zm0-4.06c0 5.762-4.758 9.605-9.584 9.605v-20C.54-4.934-4.592-.736-4.592 5.461h20zm-10 20.848h7.057v-20H5.408v20zm-2.943-10v20.687h20V16.31h-20zm10 10.687H5.408v20h7.057v-20zm2.943 10V16.31h-20v20.687h20z" fill="#368CBF" mask="url(#aa)"/></svg><svg fill="none" viewBox="0 0 38 43" id="business" xmlns="http://www.w3.org/2000/svg"><path d="M22.448 25.409H2.59v-21.5h19.858v8.219l1.727.417V3.638c.515-.339.863-.962.863-1.683C25.038.875 24.265 0 23.311 0H1.727C.773 0 0 .876 0 1.955c0 .722.35 1.344.863 1.683v22.748c0 .54.387.977.863.977h5.321L3.942 40.54c-.245 1.042.303 2.115 1.224 2.393.15.045.3.067.447.067.762 0 1.462-.578 1.668-1.452l3.342-14.185h3.792l3.342 14.185c.207.874.904 1.452 1.668 1.452.148 0 .296-.021.447-.067.921-.278 1.468-1.35 1.224-2.392L17.99 27.364h5.321c.477 0 .863-.438.863-.977v-5.845l-1.728-.418v5.285zM29.792 14.179c1.692 0 3.067-1.554 3.067-3.47 0-1.917-1.375-3.47-3.067-3.47-1.69 0-3.065 1.552-3.065 3.47 0 1.916 1.375 3.47 3.065 3.47z" fill="#368CBF"/><path d="M37.883 25.686l-3.171-9.29c-.255-.754-.896-1.25-1.61-1.25h-1.684c-.474 0-.888.234-1.197.586l.804 6.68-1.233 1.183-1.231-1.183.803-6.68c-.311-.352-.724-.586-1.198-.586h-1.501l-9.9-2.395c-.932-.225-1.85.449-2.05 1.504-.198 1.056.396 2.095 1.329 2.32L26.12 19.01a1.5 1.5 0 00.32.042v9.041l-.662 12.835c-.053 1.078.672 2.002 1.626 2.065.033.003.068.004.1.004.909 0 1.669-.802 1.724-1.842l.566-11.008.566 11.008c.054 1.04.816 1.842 1.724 1.842.033 0 .068-.001.101-.004.953-.063 1.679-.987 1.624-2.065l-.66-12.835v-5.443l1.517 4.444c.343 1.008 1.345 1.506 2.234 1.119.885-.389 1.327-1.52.983-2.528zM3.886 13.928v8.307c0 .54.386.977.862.977.478 0 .864-.438.864-.977v-8.307c0-.54-.387-.978-.864-.978s-.862.438-.862.978zM7.77 7.085v15.148c0 .54.386.977.864.977.477 0 .862-.437.862-.977V7.085c0-.54-.386-.978-.862-.978-.478 0-.864.438-.864.978zM11.656 10.993v11.24c0 .541.386.977.862.977.478 0 .864-.437.864-.977v-11.24c0-.54-.386-.977-.864-.977-.476 0-.862.437-.862.977z" fill="#368CBF"/></svg><svg fill="none" viewBox="0 0 34 49" id="chemistry" xmlns="http://www.w3.org/2000/svg"><path d="M31.663 39.11v-.887H34v-1.178H0v1.178h.018v9.604H0V49h34v-1.173h-2.337v-.524H2.39v-.384h-.04v-.222h29.313v-.495H2.367v-.183H2.35v-.224h.017v-.082h29.296v-.678H2.314v-.125h-.018v-.222h.018v-.138h29.349v-.616H2.287v-.485h29.376v-.583H2.287v-.486h29.376v-.614H2.339v-.486h29.324v-.616H2.314v-.485h29.349v-.582H2.314v-.487h29.349zM29.693 35.629h-.013v-6.044h.013v-.741H3.42v.74h1.804v.523H28.15v.487H5.224v.58H28.15v.489H5.224v.613h22.874v.267h.033v.22H5.224v.616h22.9v.202h.007v.22h-.008v.063H5.224v.582h22.9v.243h.007v.221h-.008v.021H5.224v.698H3.42v.739h26.273v-.74zM8.09 27.934h17.814c.836 0 1.54-.519 1.976-1.46.576-1.24.57-3.019-.019-4.32l-.152-.338c-.57-1.276-1.906-4.262-3.287-6.81-.466-.854-.932-1.651-1.354-2.374-.676-1.156-1.518-2.593-1.522-3.019.05-1.872.015-6.302.003-7.67h.881V0H11.28v1.941h1.17c-.015 1.368-.047 5.797.005 7.668-.008.429-.85 1.866-1.527 3.021-.421.721-.888 1.519-1.352 2.372-1.381 2.547-2.716 5.535-3.289 6.81l-.15.338c-.59 1.304-.596 3.081-.02 4.322.435.943 1.139 1.462 1.973 1.462zm-.84-4.99l.153-.345c.563-1.257 1.883-4.2 3.233-6.692.454-.84.91-1.62 1.325-2.329 1.18-2.02 1.795-3.114 1.772-4.02-.046-1.666-.022-5.542-.006-7.216h6.543c.014 1.674.04 5.55-.008 7.217-.025.903.59 2 1.772 4.02.413.708.873 1.489 1.327 2.328 1.35 2.49 2.668 5.435 3.23 6.692l.155.345c.36.802.372 1.975.026 2.72-.205.44-.497.663-.87.663H8.09c-.37 0-.664-.223-.869-.664-.345-.745-.334-1.917.03-2.719z" fill="#368CBF"/><path d="M9.137 25.927h15.725c.494 0 .904-.305 1.164-.86.337-.73.333-1.774-.014-2.54l-.089-.201c-.337-.748-1.121-2.506-1.932-4.002-.21-.386-.415-.74-.614-1.08H10.622c-.199.34-.403.696-.614 1.08-.812 1.496-1.598 3.253-1.934 4.002l-.09.2c-.347.767-.348 1.81-.011 2.541.26.553.673.86 1.164.86z" fill="#368CBF"/></svg><svg fill="none" viewBox="0 0 32 34" id="logo" xmlns="http://www.w3.org/2000/svg"><path d="M23.938.171h0c-.064-.026-.152-.048-.365-.064A19.175 19.175 0 0022.477.07c-1.1-.016-3.064-.017-6.663-.017L14.488.052C11.032.048 9.302.046 8.378.096c-.518.027-.776.071-.94.137a.943.943 0 00-.3.203l-.09.077c-.167.146-.372.42-.463.607a1.267 1.267 0 00-.097.246c-.023.091-.04.21-.05.406-.022.394-.022 1.09-.022 2.483 0 .766.006 1.482.014 2.016a41.715 41.715 0 00.022.838 1.577 1.577 0 00.005.071l.001.005h0c.011.044.035.076.084.106a.92.92 0 00.254.087c.183.035.39.091.466.123a1.69 1.69 0 00.043-.359c.019-.387.026-1.125.037-2.507v-.152c.01-1.521.016-2.284.072-2.7.03-.215.073-.345.145-.44a.869.869 0 01.246-.204l.028-.018c.056-.038.13-.062.312-.08.183-.017.483-.03.997-.038 1.028-.017 2.92-.019 6.463-.019h7.593v.05l.036 3.006.036 2.993.188.318s0 0 0 0a2.94 2.94 0 00.452.554l.018.015c.127.111.217.19.328.25.115.061.255.104.484.134.437.057 1.18.067 2.654.086l.266.003 2.995.036h.05v.05l.021 11.626h0c.004 3.999.002 6.927-.008 8.88-.005.976-.012 1.71-.022 2.21a24.732 24.732 0 01-.025.743.52.52 0 01-.012.087 1.504 1.504 0 01-.35.583c-.16.174-.354.318-.529.368h0a1.806 1.806 0 01-.104.01 48.416 48.416 0 01-.933.024 291 291 0 01-2.47.024c-2.02.012-4.678.018-7.334.017-2.656 0-5.308-.007-7.314-.02a259.136 259.136 0 01-2.443-.026 41.7 41.7 0 01-.908-.025 1.255 1.255 0 01-.06-.005.183.183 0 01-.04-.008c-.265-.098-.526-.336-.682-.624a.726.726 0 01-.072-.262 6.965 6.965 0 01-.044-.63c-.022-.602-.035-1.638-.05-3.463L23.939.171zm0 0c.053.02.146.083.305.216M23.938.17l.305.216m.1 6.562h-.001a.512.512 0 01-.093-.182 1.808 1.808 0 01-.05-.366c-.022-.353-.03-.983-.04-2.188m.183 2.736l-.183-2.736m.183 2.736h0m0 0h0m-.183-2.736a70.31 70.31 0 01.001-1.766c.004-.227.009-.411.015-.539a3.12 3.12 0 01.015-.191.106.106 0 01.005-.019.06.06 0 01.009-.015.052.052 0 01.068-.012 11.627 11.627 0 015.647 5.68.366.366 0 01.02.027.053.053 0 01.007.027.051.051 0 01-.024.044h0a.06.06 0 01-.014.006 3.858 3.858 0 01-.202.015c-.125.004-.305.007-.526.01-.442.004-1.052.004-1.724-.003-1.14-.011-1.753-.018-2.11-.04a2.285 2.285 0 01-.384-.046.705.705 0 01-.209-.086m-.594-3.092l.594 3.092m-.41-.355c.09.111.267.273.41.355m-.41-.355l.41.355m-.51-6.918c.158.131.374.327.67.606m-.67-.606l.67.606m0 0c.59.558 1.498 1.447 2.884 2.818M24.912.993l2.885 2.818m0 0a237.446 237.446 0 012.587 2.6m-2.587-2.6l2.587 2.6m0 0c.33.338.598.617.79.821a10.864 10.864 0 01.29.324l.026.036m-1.106-1.181l1.106 1.181m0 0c.026.054.049.128.067.396.018.269.031.726.041 1.54.02 1.628.027 4.681.038 10.506L31.49 7.592zM7.29 23.883l.037 4.105 24.309-7.954.014 12.181-.183.412c-.197.427-.666.927-1.097 1.158h0c-.05.027-.114.051-.354.07-.24.02-.649.033-1.385.043-1.47.02-4.242.028-9.562.039l-11.06.014-.372-.174s0 0 0 0c-.458-.23-.89-.7-1.08-1.197-.066-.181-.102-.31-.12-1.017-.02-.709-.021-1.993-.021-4.485v-4.916l.39.772h0l.485.95z" fill="#fff" stroke="#fff"/><path d="M3.393 4.812h0c-.118-.029-.228-.028-.467.056-.242.085-.607.252-1.233.55h0c-.676.319-1.05.503-1.268.65a.9.9 0 00-.225.2.707.707 0 00-.105.215.718.718 0 00-.044.192.634.634 0 00.04.232c.07.21.232.55.558 1.221h0l.52 1.08 1.795-.867h0c.509-.243.98-.465 1.33-.626a22.6 22.6 0 01.552-.245.765.765 0 01.055-.019.08.08 0 01.02-.002.16.16 0 01.063.017.813.813 0 01.204.157h.001a2.757 2.757 0 01.074.123c.035.065.083.154.14.265.115.221.273.53.46.904.376.749.874 1.758 1.404 2.85h0a258.791 258.791 0 001.392 2.843 75.887 75.887 0 00.587 1.15l.04.072.016.025-5.91-11.043zm0 0a.7.7 0 01.403.26c.128.155.26.393.429.765h0m-.832-1.025l.832 1.025m0 0c.137.297.232.486.305.597.036.055.07.096.104.12.036.026.077.034.118.017h0m-.527-.734l.527.734m0 0c.244-.102.367-.15.452-.162m-.452.162l.452-.162m-.933-.593c-.34-.745-.535-.974-.867-1.052l.867 1.052zm0 0c.274.594.375.744.462.709l-.462-.71zm.933.593a.208.208 0 01.096.005m-.096-.005l.096.005m0 0a.52.52 0 01.107.053M5.3 6.414l.107.053m0 0a.278.278 0 01.059.066c.03.04.068.099.116.178.095.16.226.4.405.748.359.694.909 1.808 1.746 3.533M5.407 6.467l3.895 9.388a.317.317 0 00.368.075.359.359 0 00.217-.332l-.002-.005a10.77 10.77 0 00-.165-.4c-.11-.246-.268-.592-.464-1.01-.391-.84-.93-1.97-1.523-3.19m0 0l.045-.022m-.045.021l.045-.021m0 0c1.184 2.44 2.159 4.524 2.159 4.624 0 .365-.434.552-.672.294l-1.487-4.918z" fill="#fff" stroke="#fff"/><path d="M8.497 16.472h0c.111.136.287.265.47.361.183.096.38.162.535.166h.002c.015 0 .027.002.04.009a.19.19 0 01.054.043c.047.05.109.141.201.308.185.332.486.946 1.031 2.074.325.677.62 1.3.835 1.757a41.761 41.761 0 01.319.7l.01.024a87.486 87.486 0 01-1.869.939s0 0 0 0l-1.86.888-.109-.22h0a25481.109 25481.109 0 00-3.327-6.843l-3.176-6.543 1.333-.644h0c.76-.373 1.45-.7 1.54-.735h.002c.039-.016.054-.018.07-.012.018.007.047.03.094.1.094.14.237.425.508.982.31.644 1.133 2.34 1.834 3.78.346.72.684 1.4.948 1.918.133.259.247.477.335.64l.111.2c.03.05.053.088.07.108zM12.484 22.833v0zm-.014.047a.389.389 0 01.017-.005 113.308 113.308 0 00.04.608l.102 1.523c.08 1.182.144 2.325.144 2.545 0 .117-.007.212-.022.287a.398.398 0 01-.062.161.122.122 0 01-.085.052.28.28 0 01-.143-.03.593.593 0 01-.068-.048 5.227 5.227 0 01-.145-.115c-.117-.097-.273-.23-.455-.388a99.708 99.708 0 01-1.284-1.14 94.678 94.678 0 01-1.244-1.138c-.168-.157-.307-.29-.404-.386a3.283 3.283 0 01-.111-.114c-.004-.004-.008-.008-.01-.012a1.8 1.8 0 01.105-.064c.093-.054.23-.128.398-.215a72.863 72.863 0 012.935-1.405c.146-.064.237-.1.292-.116z" fill="#fff" stroke="#fff"/><path stroke="#fff" d="M10.845 10.495H25.86M10.845 12.941H25.86M10.845 15.684H25.86M10.845 18.189H25.86M10.845 20.561H25.86M10.845 23.196H25.86"/><path transform="translate(10.845 25.833)" stroke="#fff" d="M0-.5h15.016"/><path transform="matrix(1 0 0 1 10.845 28.469)" stroke="#fff" d="M0-.5h15.016"/></svg><svg fill="none" viewBox="0 0 21 21" id="pencil" xmlns="http://www.w3.org/2000/svg"><path d="M14.372 4.07L4.307 14.137a1.49 1.49 0 000 2.11 1.49 1.49 0 002.11 0L16.483 6.182l-2.11-2.11zm-.577-.575l-1.12-1.119c-.031.023-.06.044-.09.073L2.52 12.513a.805.805 0 000 1.136.805.805 0 001.136 0L13.72 3.583c.03-.027.05-.058.074-.088zm3.242 3.24c-.031.024-.06.045-.09.074L6.884 16.874a.805.805 0 000 1.137.805.805 0 001.136 0L18.085 7.944c.027-.027.05-.059.073-.088l-1.12-1.121zM5.74 17.71c-3.216 0-2.756-2.755-2.756-2.755-1.377 0-1.606-.918-1.606-.918L0 20.694l6.888-1.606c-1.285-.278-1.149-1.378-1.149-1.378zM19.946 3.083L17.497.635a2.161 2.161 0 00-3.06 0l-1.062 1.06 5.508 5.509 1.06-1.061a2.16 2.16 0 00.003-3.06z" fill="#368CBF"/></svg><svg fill="none" viewBox="0 0 39 46" id="phylosophy" xmlns="http://www.w3.org/2000/svg"><path d="M4.312 39.784c0 .26.22.47.49.47h28.93a.48.48 0 00.49-.47.48.48 0 00-.49-.47H4.801a.48.48 0 00-.49.47zM33.731 41.052H4.803a.48.48 0 00-.491.47c0 .259.22.47.49.47h28.93a.48.48 0 00.49-.47.48.48 0 00-.49-.47z" fill="#368CBF"/><path d="M38.509 0H4.436C1.99 0 0 1.903 0 4.241v36.33C0 44.577 2.89 46 5.365 46H38.51a.48.48 0 00.491-.47V.47a.48.48 0 00-.491-.47zM5.365 45.06c-.732 0-4.383-.216-4.383-4.49V4.241C.982 2.421 2.532.94 4.436.94h.438v29.38c0 .259.22.47.491.47a.48.48 0 00.491-.47V.938h32.162V35.37H5.856v-1.445a.48.48 0 00-.49-.47.48.48 0 00-.492.47v1.445H4.71c-.75 0-1.601.298-2.398.838a.457.457 0 00-.117.654.504.504 0 00.685.112c.632-.429 1.282-.664 1.83-.664h33.309v.976H5.538c-1.893 0-3.434 1.473-3.434 3.284 0 1.81 1.54 3.284 3.434 3.284h30.437a.48.48 0 00.492-.47v-5.159h1.55v6.836H5.366zm28.506-6.835h1.613v4.69H5.538c-1.352 0-2.452-1.052-2.452-2.345 0-1.293 1.1-2.345 2.452-2.345h28.333z" fill="#368CBF"/><path d="M16.137 11.71h.685c.04 0 .145.105.16.299l.02.228c.195 2.44.382 4.753 3.142 5.018v3.55h-.706a.48.48 0 00-.491.47c0 .26.22.47.491.47h2.408a.48.48 0 00.492-.47.48.48 0 00-.492-.47h-.72v-3.541c2.873-.209 3.061-2.529 3.257-4.98l.022-.275c.015-.194.121-.298.16-.298h.687a.48.48 0 00.492-.47.48.48 0 00-.492-.47h-.686c-.596 0-1.087.501-1.14 1.165l-.023.276c-.207 2.6-.403 3.941-2.277 4.11v-4.611h.72a.48.48 0 00.492-.47.48.48 0 00-.492-.47h-1.141c-.023-.003-.046-.006-.07-.006-.024 0-.046.003-.07.006h-1.127a.48.48 0 00-.491.47c0 .26.22.47.491.47h.706v4.598c-1.763-.217-1.957-1.57-2.163-4.144l-.019-.23c-.054-.663-.544-1.164-1.14-1.164h-.685a.48.48 0 00-.492.47c0 .26.22.47.492.47z" fill="#368CBF"/><path d="M13.015 30.512c0 .26.22.47.49.47h9.499c.143 0 .28-.06.373-.164a.456.456 0 00.113-.377l-.808-5.034h6.095c1.084 0 1.965-.843 1.965-1.878V19.77h2.214a.496.496 0 00.422-.23.452.452 0 00.01-.463l-2.484-4.374c-.437-5.116-4.932-9.072-10.307-9.072h-.118c-5.62.06-10.206 4.484-10.222 9.86-.007 2.52.971 4.908 2.758 6.749v8.271zm7.475-23.94h.107c4.898 0 8.988 3.628 9.335 8.305.006.08.033.155.076.218l2.122 3.737h-1.88a.48.48 0 00-.49.47v4.227c0 .517-.441.939-.983.939h-8.179a9.65 9.65 0 01-3.814-.775.5.5 0 00-.65.237c-.11.237.001.515.249.62 1.33.57 2.748.857 4.215.857h1.09l.744 4.635h-8.435v-7.988c0-.018-.003-.035-.005-.052l-.004-.033c-.004-.02-.01-.04-.017-.06-.003-.01-.005-.019-.01-.028a.456.456 0 00-.03-.059l-.013-.022a.487.487 0 00-.051-.063l-.008-.009-.004-.004-.003-.003c-1.691-1.681-2.619-3.892-2.612-6.226.014-4.866 4.163-8.869 9.25-8.923z" fill="#368CBF"/></svg><svg fill="none" viewBox="0 0 45 46" id="physics" xmlns="http://www.w3.org/2000/svg"><path d="M22.5 27.69c2.868 0 5.193-2.093 5.193-4.674 0-2.582-2.325-4.674-5.193-4.674-2.867 0-5.192 2.092-5.192 4.674 0 2.581 2.325 4.674 5.192 4.674z" fill="#368CBF"/><path d="M41.548 25.347a32.145 32.145 0 00-2.206-2.331 32.123 32.123 0 002.206-2.332c1.548-1.82 2.59-3.536 3.1-5.1.409-1.259.667-3.092-.425-4.68-1.477-2.145-4.49-2.595-6.757-2.595-1.907 0-4.084.3-6.426.867a27.611 27.611 0 00-.747-1.976C29.385 5.06 28.31 3.355 27.1 2.144 25.702.747 24.097 0 22.457 0h-.01c-2.075 0-3.667 1.177-4.638 2.155-1.207 1.215-2.275 2.927-3.174 5.072-.259.617-.5 1.265-.724 1.938-2.323-.56-4.484-.856-6.377-.856-2.268 0-5.28.45-6.757 2.597-1.092 1.586-.834 3.42-.425 4.678.51 1.565 1.552 3.282 3.1 5.102a32.175 32.175 0 002.205 2.33 32.111 32.111 0 00-2.205 2.331c-1.548 1.82-2.59 3.537-3.1 5.101-.409 1.258-.667 3.091.425 4.678 1.476 2.146 4.49 2.596 6.757 2.596 1.907 0 4.086-.3 6.428-.868.23.684.479 1.342.745 1.969.908 2.141 1.983 3.837 3.194 5.049C19.298 45.269 20.903 46 22.543 46h.01c2.075 0 3.667-1.163 4.638-2.14 1.207-1.215 2.275-2.912 3.174-5.057.258-.615.498-1.26.721-1.93 2.324.561 4.486.858 6.38.858 2.268 0 5.28-.455 6.757-2.6 1.092-1.587.834-3.424.425-4.683-.509-1.564-1.552-3.28-3.1-5.1zm-4.082-14.424c1.252 0 3.475.176 4.288 1.358.92 1.336-.02 3.884-2.512 6.815a29.469 29.469 0 01-1.957 2.074 53.488 53.488 0 00-4.45-3.347 43.39 43.39 0 00-1.056-6.117c2.124-.515 4.056-.783 5.687-.783zm-8.429 22.636l-.073-.023a50.345 50.345 0 01-3.23-1.157 67.337 67.337 0 003.954-2.174 38.666 38.666 0 01-.651 3.354zm-2.483-4.652a63.448 63.448 0 01-4.056 2.074 63.898 63.898 0 01-7.547-4.172 50.324 50.324 0 01-.016-7.576 63.425 63.425 0 017.564-4.181 63.513 63.513 0 017.55 4.172 50.348 50.348 0 01.016 7.575 63.098 63.098 0 01-3.511 2.108zm-10.552 4.635a38.73 38.73 0 01-.657-3.313 67.193 67.193 0 003.913 2.15 50.74 50.74 0 01-3.222 1.153l-.034.01zm-4.074-8.825a47.46 47.46 0 01-2.157-1.701 47.31 47.31 0 012.15-1.696 53.244 53.244 0 00.007 3.397zm4.032-12.24c.026.008.051.015.076.024 1.056.337 2.136.723 3.226 1.155a67.248 67.248 0 00-3.951 2.171c.174-1.16.391-2.281.65-3.35zm13.04.012c.26 1.06.48 2.17.657 3.32a67.5 67.5 0 00-3.92-2.154c1.091-.431 2.17-.818 3.227-1.155l.036-.011zm4.072 8.827a47.412 47.412 0 012.156 1.7c-.68.57-1.397 1.136-2.15 1.696a53.495 53.495 0 00-.006-3.396zM17.352 8.15c1.448-3.453 3.354-5.517 5.105-5.52 1.745 0 3.66 2.056 5.123 5.505.245.577.474 1.183.686 1.813a55.95 55.95 0 00-5.766 2.176 55.855 55.855 0 00-5.814-2.19c.206-.62.428-1.216.666-1.784zM3.245 12.281c.814-1.182 3.037-1.358 4.29-1.358 1.62 0 3.537.265 5.645.774a43.249 43.249 0 00-1.037 6.14 53.47 53.47 0 00-4.428 3.333 29.434 29.434 0 01-1.957-2.074c-2.493-2.931-3.432-5.479-2.513-6.815zM7.534 35.11c-1.252 0-3.475-.176-4.289-1.358-.919-1.337.02-3.884 2.513-6.815.585-.687 1.24-1.38 1.955-2.073a53.497 53.497 0 004.453 3.35 43.3 43.3 0 001.056 6.112c-2.124.516-4.057.784-5.688.784zm20.114 2.765c-1.448 3.453-3.354 5.512-5.1 5.512h-.004c-1.746 0-3.662-2.051-5.125-5.5a25.487 25.487 0 01-.682-1.803 55.927 55.927 0 005.757-2.172c1.98.87 3.934 1.606 5.816 2.193a25.314 25.314 0 01-.662 1.77zm14.107-4.12c-.814 1.183-3.036 1.364-4.289 1.364-1.62 0-3.54-.267-5.647-.778a43.266 43.266 0 001.037-6.146 53.473 53.473 0 004.428-3.331 29.456 29.456 0 011.958 2.075c2.493 2.931 3.432 5.48 2.513 6.817z" fill="#368CBF"/></svg><svg fill="none" viewBox="0 0 17 16" id="topic" xmlns="http://www.w3.org/2000/svg"><path d="M16.842 5.256l-1.27-1.181-1.27-1.182a.56.56 0 00-.381-.147.56.56 0 00-.38.147l-.628.584V.5c0-.276-.241-.5-.538-.5H.538C.241 0 0 .224 0 .5v15c0 .276.24.5.538.5h11.837c.297 0 .538-.224.538-.5V9.62l3.93-3.656a.476.476 0 000-.708zM11.837 15H1.076V1.001h10.76v3.477L7.392 8.613a.492.492 0 00-.146.252l-.661 2.979a.478.478 0 00.146.455.56.56 0 00.49.136l3.201-.615a.55.55 0 00.272-.136l1.144-1.064V15zm-3.74-5.022l1.13 1.05-1.424.274.294-1.324zm2.216.645l-1.78-1.655 5.388-5.013.51.474-3.287 3.057a.476.476 0 000 .708.558.558 0 00.38.147.558.558 0 00.381-.147l3.287-3.057.51.474-5.39 5.012z" fill="#368CBF"/></svg><svg fill="none" viewBox="0 0 38 37" id="topics" xmlns="http://www.w3.org/2000/svg"><path d="M2.482 7.375C.973 8.981.116 11.12.066 13.407L0 36.977 24.398 37h.023c1.95-.057 4.164-.285 5.793-1.519 1.632-1.234 2.474-3.32 2.57-6.376l.005-.064.07-24.184-24.383-.064a8.187 8.187 0 00-5.994 2.582zm29 21.579l-.004.102c-.17 5.426-2.625 6.531-7.092 6.668l-23.08-.02.063-22.274c.089-4.12 3.21-7.353 7.107-7.365l23.068.06-.062 22.829z" fill="#368CBF"/><path d="M8.488 0v1.272h28.205v27.542H38V0H8.488zM7.82 28.383h17.271v1.272H7.821v-1.272zM7.82 20.321h17.271v1.272H7.821v-1.272z" fill="#368CBF"/><path d="M7.82 11.78h17.271v1.272H7.821v-1.273z" fill="#368CBF"/></svg></svg>